<svg id="Capa_1" data-name="Capa 1" xmlns="http://www.w3.org/2000/svg" viewBox="0 0 33 28"><title>musica</title><path d="M2.91,20.7a4.8,4.8,0,0,1,9.37,1.67v0h.21l.22,0a5.23,5.23,0,0,0-10.22-1.8l0,.09.42.12Z" style="fill:#fff"/><path d="M10.88,25.53a4.91,4.91,0,0,1-4.2,1.33,5,5,0,0,1-3.53-2.67.22.22,0,0,0-.29-.1.22.22,0,0,0-.1.29,5.37,5.37,0,0,0,3.85,2.91,5.32,5.32,0,0,0,4.57-1.45.22.22,0,0,0,0-.31A.21.21,0,0,0,10.88,25.53Z" style="fill:#fff"/><path d="M4.2,22.6h0a.22.22,0,0,0-.25.17,2.65,2.65,0,0,0,0,1.05H4a3.21,3.21,0,0,0,2.87,2.25,3.21,3.21,0,0,0,3.43-1.15h0a2.79,2.79,0,0,0,.38-1,.22.22,0,0,0-.06-.19.19.19,0,0,0-.19,0h0a14.7,14.7,0,0,1-6.09-1.06Zm2.69,3a3,3,0,0,1-2.37-1.5l.06,0,.28.1.13,0,.32.1.16.05.36.1.18.05.48.11.12,0,.61.12h0l.21,0L8,25l.28,0,.46,0h.9A3,3,0,0,1,6.89,25.65Zm3.25-1.53a2.55,2.55,0,0,1-.2.48H9a4,4,0,0,1-.49,0H8.42l-.39,0-.14,0-.32,0-.16,0-.29-.05-.15,0-.28-.06-.14,0-.27-.06-.13,0-.25-.07-.11,0L5.54,24l-.09,0-.23-.07-.07,0-.23-.07,0,0-.23-.08h0l-.18-.06-.06,0-.06,0a2.18,2.18,0,0,1,0-.51A14.92,14.92,0,0,0,10.14,24.12Z" style="fill:#fff"/><path d="M13.86,24.24a3.32,3.32,0,0,0-1.95-1.06.2.2,0,0,0-.17,0,.22.22,0,0,0-.09.14A3.44,3.44,0,0,0,12,25.57h0a1.13,1.13,0,0,0,.74.46h0a1.12,1.12,0,0,0,.85-.19h0a1.14,1.14,0,0,0,.27-1.6Zm-.51,1.24h0a.7.7,0,0,1-.53.12h0a.7.7,0,0,1-.46-.29h0a2.77,2.77,0,0,1-.3-1.65,2.66,2.66,0,0,1,1.46.84.69.69,0,0,1,.12.52A.7.7,0,0,1,13.35,25.48Z" style="fill:#fff"/><path d="M3.12,21.75A.19.19,0,0,0,3,21.66,3.41,3.41,0,0,0,.77,22a1.14,1.14,0,0,0-.47.74,1.16,1.16,0,0,0,.19.85h0a1.11,1.11,0,0,0,.74.46h0a1.16,1.16,0,0,0,.85-.19,3.36,3.36,0,0,0,1.07-2A.22.22,0,0,0,3.12,21.75ZM1.84,23.52a.71.71,0,0,1-.53.12h0a.7.7,0,0,1-.45-.28h0a.69.69,0,0,1-.12-.52A.71.71,0,0,1,1,22.37a2.73,2.73,0,0,1,1.66-.31A2.72,2.72,0,0,1,1.84,23.52Z" style="fill:#fff"/><path d="M4.7,21.69a.22.22,0,0,0,.22-.09.81.81,0,0,1,.47-.34.84.84,0,0,1,.62.09.82.82,0,0,1,.37.5.21.21,0,0,0,.26.16.22.22,0,0,0,.16-.27A1.21,1.21,0,0,0,6.23,21a1.26,1.26,0,0,0-1-.14,1.25,1.25,0,0,0-.73.52.22.22,0,0,0,.06.3A.16.16,0,0,0,4.7,21.69Z" style="fill:#fff"/><path d="M8.62,22.23a.82.82,0,0,1,1.47.25.2.2,0,0,0,.17.16h.09a.22.22,0,0,0,.16-.27A1.25,1.25,0,0,0,8.26,22a.22.22,0,0,0,.36.24Z" style="fill:#fff"/><path d="M12.25,12.47a.36.36,0,0,0,.35.25.25.25,0,0,0,.12,0,.36.36,0,0,0,.23-.46l0-.15A8.11,8.11,0,0,1,27.36,5l0,0a.36.36,0,0,0,.5.11A.36.36,0,0,0,28,4.66l0-.06A8.85,8.85,0,0,0,12.2,12.33Z" style="fill:#fff"/><path d="M29,10.44a.37.37,0,0,0-.43.3,8.25,8.25,0,0,1-4.4,6,8.32,8.32,0,0,1-7.48-.14.37.37,0,0,0-.34.66,9.14,9.14,0,0,0,8.15.14,9,9,0,0,0,4.8-6.55A.36.36,0,0,0,29,10.44Z" style="fill:#fff"/><path d="M16.56,13.39l0,0a.36.36,0,0,0-.16.49,4.51,4.51,0,0,0,1.07,1.42h0a4.34,4.34,0,0,0,2.94,1.06,7.33,7.33,0,0,0,3.23-.84c2.38-1.18,3.67-3,3.54-5h0a4.5,4.5,0,0,0-.49-1.76.36.36,0,0,0-.59-.09l0,0a25,25,0,0,1-9.38,4.62Zm6.72,1.49a5.15,5.15,0,0,1-4.75.32,25.78,25.78,0,0,0,7-3.22l.08-.05c.21-.14.41-.29.62-.45l.1-.07.05,0A5,5,0,0,1,23.28,14.88Zm2.91-5.32a4.78,4.78,0,0,1,.2.85l-.38.3-.2.16-.62.45-.06,0c-.24.17-.48.32-.72.47h0l-.7.41-.12.07-.59.31-.14.08-.55.27-.15.07-.54.25-.13.05-.53.23-.1,0-.53.21-.08,0-.53.2h0c-.9.32-1.58.51-1.92.6a4.4,4.4,0,0,1-.54-.67A25.59,25.59,0,0,0,26.19,9.56Z" style="fill:#fff"/><path d="M31.4,6a5.73,5.73,0,0,0-3.74.49.36.36,0,0,0-.18.5,5.89,5.89,0,0,0,2.68,2.67h0a1.86,1.86,0,0,0,.61.1,1.94,1.94,0,0,0,1.83-1.3v0A1.93,1.93,0,0,0,31.4,6Zm.52,2.2h0a1.18,1.18,0,0,1-1.5.75h0a4.57,4.57,0,0,1-2.06-2,4.51,4.51,0,0,1,2.82-.31A1.21,1.21,0,0,1,31.92,8.22Z" style="fill:#fff"/><path d="M14.24,13.31a.36.36,0,0,0-.29,0A5.75,5.75,0,0,0,11.28,16h0a1.92,1.92,0,0,0,1.22,2.44h0a1.87,1.87,0,0,0,.62.1,2,2,0,0,0,.86-.2,2,2,0,0,0,1-1.12,5.64,5.64,0,0,0-.5-3.73A.38.38,0,0,0,14.24,13.31Zm0,3.7a1.2,1.2,0,0,1-.6.69,1.22,1.22,0,0,1-.92.06h0A1.19,1.19,0,0,1,12,16.25h0a4.62,4.62,0,0,1,2-2.06A4.53,4.53,0,0,1,14.25,17Z" style="fill:#fff"/><path d="M16.56,10.78a.37.37,0,0,0,.1.51.4.4,0,0,0,.21.07.35.35,0,0,0,.3-.17l1.56-2.31a.35.35,0,0,0,0-.37.37.37,0,0,0-.3-.21l-2.83-.24a.36.36,0,0,0-.4.34.35.35,0,0,0,.33.39l2.21.2Z" style="fill:#fff"/><path d="M22.94,4.56a.35.35,0,0,0-.5.12l-1.52,2.4a.38.38,0,0,0,0,.37.39.39,0,0,0,.31.2L24,7.8h0a.37.37,0,0,0,.37-.35A.38.38,0,0,0,24,7.06l-2.16-.12,1.18-1.87A.36.36,0,0,0,22.94,4.56Z" style="fill:#fff"/></svg>