<svg id="Capa_1" data-name="Capa 1" xmlns="http://www.w3.org/2000/svg" viewBox="0 0 33 28"><title>musica</title><path d="M16.22,9l-2-.41a.56.56,0,0,1-.48-.42l-.41-2.46L13.2,5A.16.16,0,0,0,13,4.86a.18.18,0,0,0-.18.14l-.37,2a.17.17,0,0,0,.14.21.18.18,0,0,0,.2-.14L13,6c.1.62.37,2.23.37,2.23a.93.93,0,0,0,.76.71l1.15.23-1.15.23a.93.93,0,0,0-.76.71L13,12.3l-.36-2.16a.93.93,0,0,0-.76-.71L10.76,9.2,11.91,9a1.08,1.08,0,0,0,.74-.88.18.18,0,0,0-.15-.2.18.18,0,0,0-.2.15c0,.21-.22.53-.46.58L9.84,9a.17.17,0,0,0,0,.34l2,.41a.57.57,0,0,1,.48.42l.53,3.2a.18.18,0,0,0,.18.14.17.17,0,0,0,.17-.14l.54-3.2a.56.56,0,0,1,.48-.42l2-.41a.17.17,0,0,0,0-.34Z" style="fill:#fff"/><path d="M17.08,8.35,17.47,6a.36.36,0,0,1,.31-.26l1.44-.29a.17.17,0,0,0,.14-.18.17.17,0,0,0-.14-.17l-1.44-.29a.37.37,0,0,1-.31-.27l-.39-2.31a.16.16,0,0,0-.17-.14h0a.18.18,0,0,0-.18.14l-.27,1.42a.18.18,0,0,0,.14.21.17.17,0,0,0,.21-.14l.09-.46.22,1.34a.72.72,0,0,0,.59.55l.59.12-.59.12a.73.73,0,0,0-.59.55l-.21,1.27L16.7,6a.73.73,0,0,0-.59-.56l-.59-.12.59-.12a.81.81,0,0,0,.57-.67.17.17,0,0,0-.14-.2.18.18,0,0,0-.21.14.48.48,0,0,1-.29.39l-1.45.29a.18.18,0,0,0-.14.17.18.18,0,0,0,.14.18L16,5.78a.36.36,0,0,1,.31.26l.38,2.31a.18.18,0,0,0,.18.15A.17.17,0,0,0,17.08,8.35Z" style="fill:#fff"/><path d="M20.7,10.26,19.55,10a.26.26,0,0,1-.22-.18L19,8a.17.17,0,0,0-.34,0l-.22,1.14a.17.17,0,0,0,.14.21.17.17,0,0,0,.2-.14l0-.17.14.87a.62.62,0,0,0,.5.47l.3.06-.3.06A.61.61,0,0,0,19,11l-.13.8-.14-.8a.58.58,0,0,0-.49-.47l-.3-.06.3-.06a.7.7,0,0,0,.48-.57.18.18,0,0,0-.14-.2.18.18,0,0,0-.21.14.34.34,0,0,1-.2.28L17,10.26a.18.18,0,0,0-.15.18.18.18,0,0,0,.15.17l1.15.23a.29.29,0,0,1,.22.19l.3,1.84a.18.18,0,0,0,.18.14.17.17,0,0,0,.17-.14L19.33,11a.27.27,0,0,1,.22-.19l1.15-.23a.18.18,0,0,0,.14-.17A.18.18,0,0,0,20.7,10.26Z" style="fill:#fff"/><path d="M32.08,14.26a3.82,3.82,0,0,0-.31-.84,3.45,3.45,0,0,0-1.2-1.29l-.07,0a.37.37,0,0,0-.21,0L18,14.74a2.74,2.74,0,0,0-.8.36,2.37,2.37,0,0,0-.85,1,2.62,2.62,0,0,0-1.95-.68H14.3L1.81,17h0a.35.35,0,0,0-.25.14,3.27,3.27,0,0,0-.53,1A3.4,3.4,0,0,0,2.14,22a.58.58,0,0,0,.22.08l2.08.07h.18a.91.91,0,0,1,.68.3l2.46,2s0,0,0,0v0l.08.05a2.59,2.59,0,0,0,.67.33h0l0,0h0l5.37,1h0a3,3,0,0,0,.74,0,1.48,1.48,0,0,0,1-.53,1.38,1.38,0,0,0,.2-.33A2.43,2.43,0,0,0,16,23.56a2.37,2.37,0,0,0,.81-.12,1.49,1.49,0,0,0,.6-.39.52.52,0,0,0,.1-.11l.12.08.16.06A2,2,0,0,0,19.14,23a3.75,3.75,0,0,0,.17.68l.09.21,0,.08.11.17h0a1.33,1.33,0,0,0,.42.4h0a1.53,1.53,0,0,0,1.07.17h0a3.08,3.08,0,0,0,.71-.23l0,0L25,22.62l1.49-.86h0l0,0h0a2.8,2.8,0,0,0,.52-.55l.05-.07h0l0,0,1.64-2.74a.88.88,0,0,1,.53-.49h0l2.1-.85a.36.36,0,0,0,.18-.14A3.44,3.44,0,0,0,32.08,14.26ZM17,22.06a.48.48,0,0,1-.1.48,1,1,0,0,1-.53.25,2,2,0,0,1-.76,0h-.1a.33.33,0,0,0-.25.12.36.36,0,0,0-.08.36,2.58,2.58,0,0,1,.12,1.35.77.77,0,0,1-.12.24,1.21,1.21,0,0,1-1,.28l-5.33-1a1.55,1.55,0,0,1-.5-.25l-.06,0-2.44-2a1.63,1.63,0,0,0-1.13-.48h0l-2.14-.08a2.65,2.65,0,0,1-.91-1.7,2.7,2.7,0,0,1,.13-1.2,2.65,2.65,0,0,1,.33-.65l12.31-1.62a1.62,1.62,0,0,1,1.74,1v.06L17,22Zm14.09-5.72L29.35,17l-.27.11h0a1.64,1.64,0,0,0-.89.81l-1.63,2.71,0,.05a1.76,1.76,0,0,1-.38.41l-1.75,1-2.94,1.71-.28.1a1.12,1.12,0,0,1-.69,0l-.1,0c-.31-.19-.5-.71-.54-1.51a.39.39,0,0,0-.2-.31.36.36,0,0,0-.36,0,1.69,1.69,0,0,1-1.18.27l-.12,0-.1-.07a.55.55,0,0,1-.16-.35v0l-.43-2.46-.42-2.39V17a1.49,1.49,0,0,1,.82-1.32h0a2.53,2.53,0,0,1,.45-.19l12.15-2.62a2.8,2.8,0,0,1,.58.56,2.71,2.71,0,0,1,.48,1A2.61,2.61,0,0,1,31.06,16.34Z" style="fill:#fff"/><path d="M22,17.88c-1.72.3-2.3.23-2.39-.29a.38.38,0,0,0-.44-.3.37.37,0,0,0-.3.43c.22,1.26,1.61,1.16,2.81,1a4.1,4.1,0,0,1-1.74,2.83.39.39,0,0,0,0,.53.37.37,0,0,0,.35.13.38.38,0,0,0,.18-.09,4.65,4.65,0,0,0,2-3.86.38.38,0,0,0-.14-.27A.37.37,0,0,0,22,17.88Z" style="fill:#fff"/><path d="M14.07,18.17a.37.37,0,0,0-.31.43c.09.52-.43.78-2.15,1.08a.37.37,0,0,0-.3.47,4.7,4.7,0,0,0,3.2,3,.41.41,0,0,0,.19,0A.36.36,0,0,0,15,22.9a.38.38,0,0,0-.22-.49,4.15,4.15,0,0,1-2.59-2.07c1.19-.23,2.54-.61,2.32-1.87A.37.37,0,0,0,14.07,18.17Z" style="fill:#fff"/></svg>