<svg id="Capa_1" data-name="Capa 1" xmlns="http://www.w3.org/2000/svg" viewBox="0 0 33 28"><title>musica</title><path d="M21.44,14.79l-4,2.73a.32.32,0,0,1-.27,0,1,1,0,0,1-.29-.74L16.06,7A2,2,0,0,0,15,5.22a1.56,1.56,0,0,0-1.58.2,1.74,1.74,0,0,0-.6,1.72l.5,5.52a.35.35,0,0,0,.38.32.37.37,0,0,0,.32-.39l-.51-5.54A1.07,1.07,0,0,1,13.83,6a.84.84,0,0,1,.86-.12,1.33,1.33,0,0,1,.67,1.2l.87,9.77a1.57,1.57,0,0,0,.65,1.31,1,1,0,0,0,.84,0l.09,0,.06,0,.05,0A.39.39,0,0,0,18,18l3.83-2.65a.85.85,0,0,1,.2.33,1.63,1.63,0,0,1,0,1.21c-.18.3-2.57,4.3-3.58,5.79a8.44,8.44,0,0,1-5,3.29,7,7,0,0,1-4.84-.63,5.56,5.56,0,0,1-2.79-3.76l0-.07c-.68-2.65-3.09-9.5-3.19-9.77a1,1,0,0,1,.63-1.36.84.84,0,0,1,1.09.54L5.68,14.7a.35.35,0,0,0,.66-.24L5,10.69a1.55,1.55,0,0,0-2-1A1.72,1.72,0,0,0,2,12c0,.08,2.61,7.4,3.22,9.89a.14.14,0,0,0,0,.06A6.25,6.25,0,0,0,8.29,26a7.58,7.58,0,0,0,4.9.79l.43-.09A9.12,9.12,0,0,0,19,23.09c1.05-1.57,3.59-5.8,3.61-5.84a.05.05,0,0,0,0,0,2.17,2.17,0,0,0-.45-2.46A.6.6,0,0,0,21.44,14.79Z" style="fill:#fff"/><path d="M9.43,18.91l.2,0a1.7,1.7,0,0,0,1-.55,1.88,1.88,0,0,0,.27-.42,1.66,1.66,0,0,0,1.29.54l.19,0a1.75,1.75,0,0,0,1.44-1.8c0-.12-.27-1.47-.48-2.57a1.41,1.41,0,0,0-.59-1,1.84,1.84,0,0,0-1.38-.24,1.66,1.66,0,0,0-1.21.84,1.07,1.07,0,0,0-.16-.14,1.86,1.86,0,0,0-1.39-.25,1.65,1.65,0,0,0-1.4,1.79v0l.41,2.17A1.81,1.81,0,0,0,9.43,18.91Zm2.07-5.34a1.19,1.19,0,0,1,.85.13.72.72,0,0,1,.3.5c.17.89.45,2.35.47,2.47a1,1,0,0,1-1,1.09,1.14,1.14,0,0,1-1.09-1l-.4-2.14A.94.94,0,0,1,11.5,13.57ZM8.75,14a1.19,1.19,0,0,1,.85.14.72.72,0,0,1,.3.49c.17.89.45,2.35.47,2.48a1.05,1.05,0,0,1-.26.74,1,1,0,0,1-.71.34,1.14,1.14,0,0,1-1.09-1l-.4-2.15A1,1,0,0,1,8.75,14Z" style="fill:#fff"/><path d="M21.28,8.37a1.13,1.13,0,0,0,.26,0,1.27,1.27,0,0,0,.72-.24,1.3,1.3,0,0,0,.52-.86h0l.81-5.53.92.15a.28.28,0,0,0,.33-.23.28.28,0,0,0-.23-.33L23.4,1.15a.23.23,0,0,0-.21.05.27.27,0,0,0-.11.19l-.7,4.72a1.28,1.28,0,0,0-.68-.33,1.26,1.26,0,0,0-1,.23,1.33,1.33,0,0,0-.53.85,1.35,1.35,0,0,0,.23,1A1.31,1.31,0,0,0,21.28,8.37Z" style="fill:#fff"/><path d="M30.89,2.35l-1.21-.19a.23.23,0,0,0-.21,0,.27.27,0,0,0-.11.19l-.7,4.72A1.25,1.25,0,0,0,28,6.79,1.26,1.26,0,0,0,27,7a1.29,1.29,0,0,0-.53.85,1.32,1.32,0,0,0,1.09,1.51,1.13,1.13,0,0,0,.26,0,1.27,1.27,0,0,0,.72-.24,1.3,1.3,0,0,0,.52-.86h0l.82-5.53.92.15a.28.28,0,1,0,.09-.56Z" style="fill:#fff"/><path d="M27.34,4.61a.27.27,0,0,0-.23-.32l-1.21-.2a.33.33,0,0,0-.22,0,.31.31,0,0,0-.11.19l-.7,4.72a1.32,1.32,0,0,0-.68-.33,1.31,1.31,0,0,0-1.51,1.09,1.32,1.32,0,0,0,.24,1,1.28,1.28,0,0,0,.85.52,1.18,1.18,0,0,0,.26,0,1.25,1.25,0,0,0,.72-.25,1.33,1.33,0,0,0,.53-.85h0l.81-5.52.93.15A.28.28,0,0,0,27.34,4.61Z" style="fill:#fff"/></svg>