<svg id="Capa_1" data-name="Capa 1" xmlns="http://www.w3.org/2000/svg" viewBox="0 0 33 28"><title>musica</title><path d="M30.43,12.92l0-.11c.78-3,1.71-6.52,1.73-6.61a1.47,1.47,0,0,0-.28-1.07A1.43,1.43,0,0,0,31,4.56a1.45,1.45,0,0,0-1.63,1.22.32.32,0,1,0,.63.1.81.81,0,0,1,.91-.69.84.84,0,0,1,.53.32.77.77,0,0,1,.16.58c0,.17-1,4-1.72,6.56a.53.53,0,0,1,0,.12v0a.41.41,0,0,0,0,.11h0a6,6,0,0,1-.15,2,6.08,6.08,0,0,1-7.36,4.44,8,8,0,0,1-4.15-2.85l0-.06c-.43-.69-.83-1.35-1.08-1.83l0-.06a1.84,1.84,0,0,1-.07-1.22.27.27,0,0,0,0-.09l.61-2.49a.06.06,0,0,0,0,0,.78.78,0,0,1,.3-.54.77.77,0,0,1,.59-.17.8.8,0,0,1,.71.89.65.65,0,0,1-.05.2s0,0,0,0l-.41,1.67s0,0,0,0a.13.13,0,0,0,0,.06,1041055006723,1041055006723,0,0,1,0,.12l0,.05s0,0,0,0l.06,0,0,0a14.2,14.2,0,0,1,2.24,1.18l.1,0h.15c.65-.16.93-.66,1.28-1.29.13-.24.29-.52.48-.82a0,0,0,0,0,0,0l0-.06s0,0,0-.06v-.06s0,0,0-.06a0,0,0,0,0,0,0l-1.2-2.63,0,0,0-.05-.05,0,0,0-.06,0h0l-2.84-.28h0a.77.77,0,0,1-.58-.22A.81.81,0,0,1,18,8.1a.82.82,0,0,1,.22-.58.85.85,0,0,1,.56-.25c.09,0,.18,0,.26,0l3.24.32a.83.83,0,0,1,.42.13h.05a.77.77,0,0,1,.38.31.76.76,0,0,1,.09.18.08.08,0,0,0,0,.05l1.37,2.78a.31.31,0,0,0,.21.16.28.28,0,0,0,.22,0,.33.33,0,0,0,.14-.43L23.77,8.05a1.37,1.37,0,0,0-.16-.32A1.38,1.38,0,0,0,23,7.2,1.52,1.52,0,0,0,22.28,7l-3.2-.31a1.46,1.46,0,0,0-.36,0,1.44,1.44,0,0,0-1,.44,1.47,1.47,0,0,0-.4,1,1.42,1.42,0,0,0,.45,1,1.78,1.78,0,0,0,.36.25,1.46,1.46,0,0,0-.69.29,1.43,1.43,0,0,0-.53.95l-.62,2.5a.24.24,0,0,0,0,.12,2.43,2.43,0,0,0,.18,1.68c.26.51.66,1.16,1.09,1.85l.05.08s0,0,0,0a8.91,8.91,0,0,0,4.29,3l.23.05a6.73,6.73,0,0,0,8.12-4.91A6.66,6.66,0,0,0,30.43,12.92Zm-8.37-.14c-.3.54-.46.82-.75.94a14.09,14.09,0,0,0-2-1l.34-1.39a1.44,1.44,0,0,0-.63-1.74l2.37.22,1,2.31Z" style="fill:#fff"/><path d="M23.2,6.43a.31.31,0,0,0,.39.22.32.32,0,0,0,.22-.4L22.85,3a0,0,0,0,0,0,0,.83.83,0,0,1,0-.62.78.78,0,0,1,.43-.44.79.79,0,0,1,.62,0,.81.81,0,0,1,.44.41c.05.15.89,2.92,1.45,4.75l.37,1.2a.19.19,0,0,0,0,.08l.67,2a.32.32,0,0,0,.23.21.28.28,0,0,0,.18,0,.32.32,0,0,0,.2-.4l-.56-1.66a.08.08,0,0,0,0,0l-.48-1.59c-1.23-4-1.45-4.74-1.47-4.8A1.47,1.47,0,0,0,23,1.34a1.47,1.47,0,0,0-.77.8,1.4,1.4,0,0,0,0,1.08Z" style="fill:#fff"/><path d="M26.22,5.26a.31.31,0,0,0,.32.31.31.31,0,0,0,.31-.32V3a.81.81,0,1,1,1.6-.2c0,.18.09,5.32.1,7.17a.31.31,0,0,0,.24.31h.08a.32.32,0,0,0,.32-.32c0-1.65-.1-7.11-.11-7.23a1.44,1.44,0,0,0-2.87.31Z" style="fill:#fff"/><path d="M12.3,19.84h0c-.23-.22-.52-.53-.89-.92l-.18-.2-.17-.18h0c-.38-.4-.81-.85-1.31-1.35a.21.21,0,0,0-.17-.07h0a.77.77,0,0,0-.4.1.73.73,0,0,0-.3.28,1.55,1.55,0,0,0-.23.91l-.5-.5-2-2h0L6,15.76l0,0-.14-.07h0l-.15,0h0a1.17,1.17,0,0,0-.32,0l0,0h0a.76.76,0,0,0-.16.06h0a.57.57,0,0,0-.13.08l0,0a.69.69,0,0,0-.13.11h0a.41.41,0,0,0-.09.1l0,0a1.88,1.88,0,0,0-.14.24h0a1.15,1.15,0,0,0-.06.17l0,0-.07,0-.11-.05-.08,0-.1,0H3.8l-.1,0H3.62l-.1,0-.07,0-.1.05-.05,0-.13.11-.08.09,0,0a.19.19,0,0,0,0,.09H3a.54.54,0,0,0,0,.11v0l0,.11v0a.68.68,0,0,0,0,.14v0s0,.08,0,.12v0l0,.15v0l.06.13a0,0,0,0,0,0,0l-.11,0h0a1.1,1.1,0,0,0-.77.74,1.05,1.05,0,0,0,0,.37,1.23,1.23,0,0,0,.38.69h0l.27.28h0l-.15.08,0,0-.12.09,0,0v0l-.09.1,0,0-.06.11,0,0a.58.58,0,0,0-.05.14v0h0c0,.06,0,.11,0,.16v0a1,1,0,0,0,0,.17s0,0,0,0l0,.13,0,.05.08.15,0,0a1,1,0,0,0,.12.15h0L6.59,25.6a4.59,4.59,0,0,0,.6.49l0,0,.08.05a4,4,0,0,0,2.14.61h0a4,4,0,0,0,2.86-1.18,3.87,3.87,0,0,0,.66-.86A4.07,4.07,0,0,0,12.3,19.84ZM12,25.25a3.68,3.68,0,0,1-1,.69,3.56,3.56,0,0,1-3,0l-.15-.07h0a3.75,3.75,0,0,1-.85-.63L2.79,21.12A.44.44,0,0,1,2.7,21l0,0,0-.08s0,0,0,0a.19.19,0,0,1,0-.07v0a.38.38,0,0,1,0-.1h0a.54.54,0,0,1,.05-.11v0a.27.27,0,0,1,.07-.08v0l.08-.06,0,0,.1,0H3a.17.17,0,0,1,.1,0h0l.06,0h0l.06.05,2.37,2.41a.26.26,0,0,0,.15.07h0A.2.2,0,0,0,6,22.77.16.16,0,0,0,6,22.69a.25.25,0,0,0,0-.26L3.61,20h0l-.77-.79a.55.55,0,0,1,.19-1,.47.47,0,0,1,.42.09l3,3.08a.26.26,0,0,0,.17.07.28.28,0,0,0,.17-.07.25.25,0,0,0,0-.34L3.8,18h0c-.42-.42-.53-.83-.29-1.07a.53.53,0,0,1,.74,0l.49.49h0l2.72,2.72a.24.24,0,0,0,.33,0,.22.22,0,0,0,0-.34L5.09,17.1l0-.05L5,17l0-.06,0-.05s0-.05,0-.07a.11.11,0,0,1,0-.05v-.07a.2.2,0,0,1,0-.07.06.06,0,0,1,0,0A.42.42,0,0,1,5,16.43H5a.63.63,0,0,1,.23-.23h0l.14-.06h0l.08,0H5.6l.06,0h0a.27.27,0,0,1,.08.07l2.61,2.61,1.31,1.3a.25.25,0,0,0,.34,0,.23.23,0,0,0,.05-.26.22.22,0,0,0-.05-.08L9.23,19h0a1.58,1.58,0,0,1,0-1.24.3.3,0,0,1,.08-.08.29.29,0,0,1,.14-.08c.63.63,1.16,1.19,1.58,1.64l.62.65.29.29a3.61,3.61,0,0,1,0,5.07Z" style="fill:#fff"/><path d="M4.17,15.61a.24.24,0,0,0,.24.2h0a.25.25,0,0,0,.2-.28l-.07-.44a.47.47,0,0,1,.16-.47.51.51,0,0,1,.49-.08.27.27,0,0,1,.18.21l0,.17,0,.25a.25.25,0,0,0,.24.21h0A.25.25,0,0,0,6,15.11l0-.19h0v-.07l0-.14v0l-.15-1.07h0A.63.63,0,0,1,5.91,13a.59.59,0,0,1,.58-.07.46.46,0,0,1,.28.32l.46,3.22a.25.25,0,0,0,.24.21h0a.24.24,0,0,0,.21-.28l-.46-3.2h0c-.09-.59.06-1,.39-1a.52.52,0,0,1,.59.45l.61,4.08a.25.25,0,0,0,.24.21h0a.25.25,0,0,0,.2-.28l-.5-3.37v0a.53.53,0,0,1,.49-.64.47.47,0,0,1,.59.34l.66,4.31a.24.24,0,0,0,.47,0,1.63,1.63,0,0,1,.77-1,.36.36,0,0,1,.27,0c.13.88.22,1.58.28,2.14s.11.86.16,1.18a.24.24,0,0,0,.24.2h0a.23.23,0,0,0,.19-.28c-.05-.31-.09-.69-.15-1.16S12.66,17,12.52,16a.27.27,0,0,0-.1-.16.83.83,0,0,0-.79-.11,1.55,1.55,0,0,0-.72.61l-.55-3.53a1,1,0,0,0-1.14-.75,1.11,1.11,0,0,0-.56.26,1,1,0,0,0-1.09-.69,1,1,0,0,0-.8.85l-.11,0a1,1,0,0,0-1.4,1.21h0l.06.39a1,1,0,0,0-.88.19.94.94,0,0,0-.33.92Z" style="fill:#fff"/><path d="M2.92,13.88a.24.24,0,0,0,.23.19h.06a.23.23,0,0,0,.18-.28l-.32-1.51a.25.25,0,0,0-.29-.19.24.24,0,0,0-.18.29Z" style="fill:#fff"/><path d="M2.68,15.08A.24.24,0,0,0,2.36,15L1,15.55a.25.25,0,0,0-.13.32A.25.25,0,0,0,1,16l.09,0,1.42-.61A.23.23,0,0,0,2.68,15.08Z" style="fill:#fff"/><path d="M1.56,14.11l1.06.56a.23.23,0,0,0,.11,0,.24.24,0,0,0,.11-.45l-1.06-.55a.23.23,0,0,0-.32.1A.23.23,0,0,0,1.56,14.11Z" style="fill:#fff"/><path d="M12.55,14.45h0a.25.25,0,0,0,.23-.25l-.07-1.54a.23.23,0,0,0-.25-.23.24.24,0,0,0-.23.25l.07,1.54A.23.23,0,0,0,12.55,14.45Z" style="fill:#fff"/><path d="M15.12,15.33l-1.53-.23a.24.24,0,1,0-.07.47L15,15.8h0a.25.25,0,0,0,.24-.21A.24.24,0,0,0,15.12,15.33Z" style="fill:#fff"/><path d="M13.11,15a.25.25,0,0,0,.16-.06l.89-.8a.24.24,0,1,0-.32-.36l-.89.8a.24.24,0,0,0,0,.34A.25.25,0,0,0,13.11,15Z" style="fill:#fff"/></svg>