<?xml version="1.0" encoding="utf-8"?>
<!-- Generator: Adobe Illustrator 23.0.6, SVG Export Plug-In . SVG Version: 6.00 Build 0)  -->
<svg version="1.1" id="Capa_1" xmlns="http://www.w3.org/2000/svg" xmlns:xlink="http://www.w3.org/1999/xlink" x="0px" y="0px"
	 viewBox="0 0 175 296" style="enable-background:new 0 0 175 296;" xml:space="preserve">
<style type="text/css">
	.st0{clip-path:url(#SVGID_2_);fill-rule:evenodd;clip-rule:evenodd;fill:#FFFFFF;}
</style>
<g>
	<defs>
		<rect id="SVGID_1_" x="5.23" y="5.83" width="164.55" height="284.34"/>
	</defs>
	<clipPath id="SVGID_2_">
		<use xlink:href="#SVGID_1_"  style="overflow:visible;"/>
	</clipPath>
	<path class="st0" d="M65.06,238.19c0.4-0.05,0.84,0,1.28,0.09c1.28,0.14,2.51,0.23,3.74,0.23c3.21,0,6.39-0.6,9.42-2.04
		c2.91-1.44,5.15-3.52,5.59-7.13c0-0.23,0.13-0.51,0.4-1.2c0.44,0.83,0.88,1.34,0.92,1.85c0.48,4.12-1.06,10.47-5.46,12.51
		c-1.54,0.69-3.39,1.3-5.02,1.21c-4.05-0.28-7.88-1.48-11.41-3.75l-1.36-0.65l0.57-1.07C64.18,238.24,64.62,238.19,65.06,238.19
		 M29.83,228.74c0.66,0.05,1.32,0.14,2.03,0.23l0.49,0.05c1.23,0,2.2-0.51,2.68-1.94l3.92-10.7l4.14-11.53
		c0.75-1.99,1.54-3.89,2.47-5.74c0.4-0.74,1.1-1.25,1.67-1.85l1.15,2.41c0.09,0.28,0.09,0.7,0.04,1.02
		c-0.13,3.66,0.84,6.81,3.17,9.68c4.98,6.11,6.78,13.39,6.12,21.4l0.48,0.05c-0.66,4.22-1.28,8.48-2.03,12.69
		c-0.18,1.02,0.04,1.67,0.71,2.5c2.2,2.73,4.23,5.6,6.21,8.52c0.35,0.46,0.44,1.39,0.26,1.9c-0.09,0.14-0.4,0.28-0.71,0.37h-0.53
		c-0.18-0.05-0.35-0.05-0.44-0.09c-2.47-1.16-5.11-2.18-7.22-3.84c-4.62-3.71-8.81-7.97-13.39-11.72c-3.88-3.2-8.06-5.98-12.11-8.99
		c-0.44-0.32-0.93-0.69-1.28-1.11c-0.57-0.69-1.01-1.48-1.5-2.22c0.88-0.37,1.72-0.93,2.64-1.07H29.83z M52.86,120.53
		c0.53,0.19,1.23,0.69,1.45,1.25c0.31,0.88,0.35,1.85,0.4,2.78c0.26,4.63-0.75,9.03-2.16,13.34c-1.32,4.12-2.99,8.06-4.54,12.14
		c2.24,0.97,4.8,1.99,7.22,3.29c3.61,1.85,7.22,3.84,10.7,5.98c6.69,4.08,12.46,9.31,17.44,15.52c4.67,5.74,9.11,11.67,12.64,18.35
		c0.88,1.67,1.5,3.52,2.25,5.33l0.79,1.53c0.7,1.02,1.63,1.02,1.98-0.14c0.4-1.07,0.7-2.41,0.48-3.47
		c-0.97-4.73-2.03-9.4-3.39-13.99c-0.92-3.2-2.2-6.3-3.74-9.22c-2.68-5.1-5.46-10.1-8.54-14.92c-3.3-5.14-7-9.96-10.61-14.87
		c-3.57-4.91-7.35-9.59-10.83-14.59c-1.72-2.5-2.51-5.51-2.25-8.71c0.04-0.19,0-0.37,0.09-0.51l2.99-8.01
		c1.59,1.71,2.99,3.66,4.76,5.05c1.5,1.2,3.35,2.27,5.2,2.55c0.57,0.09,1.19,0.14,1.85,0.18c1.85,0.05,3.79-0.23,5.68-0.23
		c0.66,0,1.37,0.09,1.94,0.32l8.15,3.66c-1.67,3.57-3.43,7.13-4.93,10.75c-1.45,3.43-2.73,6.95-3.96,10.47
		c-0.48,1.25-0.04,2.32,0.97,3.29c2.69,2.64,5.94,4.31,9.25,5.88l3.79,1.53v3.29c0.04,3.24,0.35,6.39,1.67,9.45
		c1.89,4.49,3.7,9.03,5.37,13.67c2.03,5.61,3.88,11.26,5.68,16.96c1.15,3.57,1.98,7.27,2.95,10.89l0.75,1.85l0.53-0.05
		c0.62-2.78,1.28-5.56,1.76-8.38c1.45-8.94,1.98-18.02,1.81-27.15c-0.13-5.61-0.48-11.21-1.98-16.63c-0.88-3.24-2.03-6.53-3.61-9.5
		c-2.69-5-5.81-9.73-8.72-14.59c-0.09-0.14-0.13-0.37-0.26-0.42c-2.6-1.81-2.47-4.31-1.89-7.13c0.66-3.34,1.41-6.53,3.39-9.54
		c1.5,1.06,2.99,1.99,4.4,3.1c0.31,0.28,0.35,0.97,0.31,1.48c-0.22,4.63,0.35,9.22,1.98,13.53c1.98,5.33,4.93,9.91,10.17,12.28
		c0.66,0.32,1.41,0.37,2.07,0.55l0.44-0.37c-0.4-0.97-0.75-1.95-1.23-2.87c-1.76-3.2-3.7-6.35-3.79-10.24l0.04-0.74
		c1.54,0.69,2.99,1.53,4.54,1.95c3.39,0.83,4.84,3.34,5.5,6.67c0.79,3.94,1.76,7.88,2.38,11.91c1.72,11.81,2.07,23.76,1.67,35.67
		c-0.35,8.62-1.01,17.19-1.76,25.8c-0.75,8.66-2.6,17.19-4.98,25.57c-1.19,4.12-3.08,8.01-4.71,12.04c-0.18,0.42-0.53,0.7-1.01,1.3
		l-6.3-20.06h-0.66l-2.42,5.28c-2.69,5.47-6.3,10.15-11.1,13.67c-0.88,0.65-2.07,0.74-3.39,0.88c5.68-13.67,8.54-27.61,6.3-42.67
		c-2.38,2.18-3.57,4.91-4.45,7.74c-1.81,5.65-3.39,11.35-5.46,16.86c-1.98,5.24-4.23,10.38-6.78,15.33c-3,5.88-6.3,11.63-9.87,17.14
		c-2.55,4.03-5.59,7.74-8.81,11.21c-2.82,3.1-6.08,5.79-9.25,8.52c-0.62,0.51-1.28,0.79-1.89,0.88H56.3
		c-0.71-0.09-1.37-0.37-1.98-0.65c-0.31-0.14-0.44-1.02-0.35-1.48c0.31-1.16,0.92-2.27,1.14-3.43c0.22-1.34-0.35-2.27-1.37-2.46
		h-0.84c-1.23,0.19-2.55,0.46-3.74,1.02c-0.31,0.14-0.57,0.18-0.84,0.23h-0.75c-0.53-0.14-0.97-0.37-1.36-0.65l-11.45-8.85
		l-2.16-1.81l-11.58,8.38c-1.54,1.16-3.08,2.32-4.76,3.29c-0.31,0.23-0.75,0.18-1.19,0.18h-0.57c0.18-0.56,0.13-1.34,0.53-1.71
		c2.69-3.01,5.42-5.93,8.19-8.85l5.07-5.23l-6.69-6.72c-2.42-2.55-4.89-5.05-7.18-7.74c-2.25-2.69-4.23-5.6-6.39-8.34
		c-2.86-3.48-3.22-7.51-2.47-11.77l4.93-27.84c1.37-7.64,3.13-15.19,4.01-22.93c0.97-8.75,1.23-17.65,1.76-26.5
		c0.09-1.71,0.79-2.73,2.42-3.33c3.7-1.39,7.44-2.87,11.05-4.49c4.36-1.99,7.88-5.33,11.41-8.57c3.39-3.06,5.64-6.95,7.53-11.12
		c1.1-2.36,1.98-4.82,3.04-7.23C51.89,121.13,52.55,120.44,52.86,120.53 M158.34,147.44c-2.38,0-4.8,0.65-7.05,1.95
		c-3.17,1.85-6.08,4.26-9.03,6.62c-2.73,2.22-2.95,4.03-1.23,7.65l1.67-1.11c3.04-2.32,5.99-4.82,9.11-7.04
		c1.98-1.39,4.32-2.04,6.83-1.95c4.62,0.23,6.65,5.47,4.85,8.8c-0.84,1.58-1.89,3.06-2.91,4.49c-0.75,0.97-1.01,3.15-0.31,3.94
		c1.15,1.3,2.07,0.37,3.13-0.28c2.29-1.44,4.05-3.47,5.11-5.93c1.58-3.75,1.85-7.74-0.18-11.4
		C166.26,149.34,162.43,147.44,158.34,147.44 M72.06,98.85l8.15-0.46c1.45-0.09,2.07,0.83,1.23,2.04c-0.7,1.02-0.44,1.67,0.13,2.5
		c0.18,0.28,0.48,0.65,0.44,0.93l-0.44,2.5c-0.75-0.32-1.59-0.56-2.2-1.07c-0.49-0.46-1.06-1.25-1.1-1.9
		c-0.04-2.36-1.63-1.76-2.91-1.95c-1.67-0.23-1.72,0.97-2.11,2.09c-0.35,1.02-0.92,1.99-1.59,2.78c-0.31,0.37-1.23,0.51-1.54,0.28
		c-0.44-0.28-0.79-1.02-0.84-1.62c-0.04-0.6,0.35-1.25,0.44-1.9c0.13-0.46,0.18-1.02,0.13-1.53c-0.04-0.56-0.4-1.39-0.22-1.62
		c0.66-0.7,1.5-1.16,2.25-1.71L72.06,98.85z M65.19,77.26c1.41,0,2.91,0.14,4.23,0.6c0.26,0.09,0.53,0.14,0.75,0.18h0.57
		c0.44-0.14,0.71-0.65,0.97-1.44c0.26-0.97,0.66-1.99,1.32-2.64c0.26-0.28,0.48-0.42,0.71-0.42c0.44,0,0.79,0.46,0.88,1.2v3.2h-0.31
		v8.11c-0.09,2.78-1.19,3.8-3.74,3.29c-0.4-0.09-0.71-0.14-0.97-0.09c-1.19,0-1.98,0.7-2.69,1.81c-0.88,1.34-1.94,2.59-3,3.8
		c-0.92,1.02-2.33,0.69-2.77-0.7c-1.01-3.2-1.94-6.39-2.82-9.64c-0.57-2.13,0.04-4.12,1.23-5.84c0.31-0.46,0.97-0.74,1.54-0.83
		C62.46,77.59,63.83,77.26,65.19,77.26 M87.04,78.05l-2.11,0.51c-2.12,0.46-2.73,1.3-2.73,3.75l0.26,1.9
		c0.09,0.79,0.48,1.07,1.01,1.07c0.18-0.05,0.35-0.09,0.57-0.19c2.29-0.97,3.88-2.69,4.62-5.14c0.35-1.34,0.09-1.95-0.93-1.95
		L87.04,78.05z M48.24,56.23c1.98,0.09,3.96,0.6,5.94,0.97l2.86,0.79c-0.22-2.41-0.4-4.59-0.7-6.76c-0.93-7-2.25-13.94-4.23-20.71
		c-0.62-2.13-1.28-4.26-1.72-6.44c-1.15-5.42,1.1-8.25,5.24-11.58c6.3-5,13.3-6.67,20.65-6.67c2.16,0,4.36,0.14,6.56,0.37
		c1.81,0.23,2.38,1.07,2.64,2.97l2.99,22.42c0.09,0.56,0.66,1.02,1.01,1.58c0.31-0.6,0.88-1.11,0.97-1.71
		c0.4-3.8,0.79-7.64,1.06-11.44l0.35-8.52c0-0.46,0.22-0.97,0.35-1.48l0.18-0.51l0.44,0.18c0.44,0.19,0.88,0.32,1.32,0.6
		c2.29,1.44,3.04,3.66,2.69,6.35c-1.19,7.97-2.03,15.98-2.07,24.13v12.09l2.29-0.14c0.62-0.09,1.23-0.14,1.89-0.14
		c1.54-0.05,3.17,0.37,4.67,2.13c-1.06,0.46-1.85,1.07-2.64,1.07c-4.05,0.04-7.49,2.04-10.75,4.17c-7.53,4.86-15.63,7.23-24.35,5.7
		c-3.3-0.56-6.43-2.27-9.64-3.52c-1.9-0.74-3.7-1.67-5.64-2.18c-0.44-0.14-0.84-0.18-1.23-0.18c-2.07-0.14-3.83,0.88-5.59,2.04
		l-2.42,1.25C41.81,59.47,45.2,56.14,48.24,56.23"/>
</g>
</svg>
