<?xml version="1.0" encoding="utf-8"?>
<!-- Generator: Adobe Illustrator 23.0.6, SVG Export Plug-In . SVG Version: 6.00 Build 0)  -->
<svg version="1.1" id="Capa_1" xmlns="http://www.w3.org/2000/svg" xmlns:xlink="http://www.w3.org/1999/xlink" x="0px" y="0px"
	 viewBox="0 0 70 98.35" style="enable-background:new 0 0 70 98.35;" xml:space="preserve">
<style type="text/css">
	.st0{enable-background:new    ;}
	.st1{fill:#FBB900;}
	.st2{fill:#FFFFFF;}
	.st3{font-family:'RobotoCondensed-BoldItalic';}
	.st4{font-size:9.1721px;}
</style>
<g>
	<path class="st1" d="M64.99,2.17H8.93c-1.54,0-2.79,1.16-2.97,2.66L5.93,4.81c0,0.12,0,0.24,0,0.35c0,0,0,0.01,0,0.01v31.5
		c0,0,0,0.01,0,0.01c0,1.97,0,3.93,0,5.9c0,0.65,0,1.31,0.01,1.96c0.01,1.1,0.37,2.02,1.48,2.43c1.07,0.39,2.01,0.08,2.79-0.7
		c1.76-1.74,3.55-3.45,5.24-5.26c0.59-0.63,1.21-1.06,1.91-1.34h47.63c1.66,0,3-1.34,3-3V5.17C67.99,3.52,66.64,2.17,64.99,2.17z"/>
	<g>
		<g>
			<path class="st2" d="M31.99,77.95c3.15-3.38,4.79-7.79,4.63-12.41c-0.17-4.62-2.12-8.9-5.51-12.05
				c-3.38-3.15-7.79-4.79-12.41-4.63l0,0c-4.62,0.17-8.9,2.12-12.05,5.51c-3.15,3.38-4.79,7.79-4.63,12.41
				c0.17,4.62,2.12,8.9,5.51,12.05c2.83,2.63,6.37,4.21,10.15,4.56c0.74,0.07,1.5,0.09,2.26,0.06
				C24.57,83.29,28.84,81.34,31.99,77.95z M19.89,82.02c-4.24,0.15-8.28-1.35-11.38-4.24c-3.1-2.89-4.9-6.81-5.05-11.05
				c-0.15-4.24,1.35-8.28,4.24-11.38c2.89-3.1,6.81-4.9,11.05-5.05c0,0,0,0,0,0c0.7-0.03,1.39-0.01,2.07,0.06
				c3.47,0.32,6.72,1.77,9.31,4.18c3.1,2.89,4.89,6.81,5.05,11.05c0.15,4.24-1.35,8.28-4.24,11.38
				C28.05,80.07,24.13,81.87,19.89,82.02z"/>
		</g>
		<g>
			<path class="st2" d="M26.26,71.63c-4.48,2.61-9.62,2.81-13.41,0.51c-0.34-0.2-0.78-0.1-0.99,0.24c-0.21,0.34-0.1,0.78,0.24,0.99
				c1.62,0.98,3.46,1.56,5.39,1.74c3.11,0.29,6.45-0.46,9.5-2.24c0.34-0.2,0.46-0.64,0.26-0.99C27.05,71.55,26.61,71.43,26.26,71.63
				z"/>
		</g>
		<g>
			<path class="st2" d="M32.04,61.59c-0.02-0.1-0.04-0.2-0.06-0.29l0.22-2.35c0.04-0.39-0.25-0.74-0.65-0.78l-2.57-0.26
				c-0.22-0.04-0.43-0.05-0.6-0.04c-3.25-0.16-5.28,0.01-6.55,0.62c-0.02,0.01-0.04,0.01-0.05,0.02c-0.05,0.03-0.1,0.05-0.16,0.08
				c-0.01,0-0.01,0.01-0.02,0.01c-2.72,1.53-5.23,0.18-5.34,0.12c-0.07-0.04-0.14-0.05-0.21-0.07c-1.3-0.47-3.31-0.49-6.44-0.11
				c-0.15,0-0.33,0.03-0.51,0.07l-2.67,0.47c-0.39,0.07-0.65,0.44-0.59,0.83l0.39,2.35c-0.01,0.09-0.03,0.18-0.03,0.28c0,0,0,0,0,0
				c-0.01,0.13-0.22,3.28,1.68,5.11c0.74,0.71,1.67,1.11,2.79,1.22c0.46,0.04,0.96,0.03,1.48-0.03c1.75-0.21,5.7-0.67,6.07-5.8
				c0.19-0.29,0.58-0.73,0.93-0.75c0.27-0.01,0.6,0.25,0.94,0.72c0.64,4.3,3.59,5.08,5.55,5.26c0.34,0.03,0.65,0.05,0.91,0.06
				c1.8,0.08,3.21-0.42,4.17-1.49C32.5,64.85,32.06,61.72,32.04,61.59C32.04,61.59,32.04,61.59,32.04,61.59z M11.99,67.39
				c-1.34,0.16-2.38-0.11-3.1-0.79c-1.41-1.34-1.25-3.9-1.25-3.97C7.8,60.59,8.9,60.11,9.42,60l0.02,0c0,0,0,0,0.01,0
				c0.12-0.02,0.2-0.03,0.23-0.03c0.03,0,0.06,0,0.08-0.01c3.79-0.47,5.88-0.3,6.56,0.51c0.46,0.55,0.47,1.02,0.48,1.43
				c0.01,0.28,0,0.55-0.01,0.81c0,0.03,0,0.05,0,0.08C16.55,66.85,13.72,67.18,11.99,67.39z M29.65,65.84
				c-0.67,0.73-1.69,1.08-3.03,1.01c-1.87-0.09-4.99-0.22-5.2-5.12c-0.02-0.41-0.04-0.88,0.38-1.46c0.62-0.86,2.69-1.18,6.51-0.99
				c0.02,0,0.05,0,0.07,0c0.03,0,0.12,0,0.23,0.01c0.01,0,0.01,0.01,0.02,0.01l0.07,0.01c0.55,0.09,1.61,0.53,1.91,2.48
				C30.62,61.86,30.96,64.4,29.65,65.84z"/>
		</g>
		<g>
			<path class="st2" d="M36.66,93.74l-3.26-0.77c-1.53-0.36-2.7-1.06-3.49-2.02c-0.66-0.85-1.06-1.9-1.15-3.06
				c-0.04-0.66,0.02-1.38,0.19-2.13c0.04-0.18,0.09-0.35,0.15-0.52c0.02-0.06,0.04-0.12,0.06-0.18c0.06-0.17,0.13-0.34,0.2-0.51
				c0.03-0.06,0.06-0.13,0.08-0.19c0.07-0.16,0.15-0.31,0.23-0.46c0.04-0.08,0.09-0.16,0.14-0.24c0.07-0.13,0.15-0.25,0.23-0.38
				c0.09-0.13,0.18-0.26,0.28-0.39c0.49-0.65,1.09-1.24,1.77-1.71c0,0,0.01-0.01,0.01-0.01c0,0,0.01,0,0.01-0.01l8.04-6.39
				c0.5-0.4,1.01-0.32,1.26-0.08c0.08,0.08,0.21,0.23,0.09,0.4l-4.64,6.75c-0.08,0.12-0.1,0.26-0.05,0.39
				c0.05,0.13,0.16,0.23,0.3,0.26l1.81,0.43c0.02,0,0.04,0.01,0.06,0.01c0.21,0.02,0.4-0.12,0.45-0.33
				c0.05-0.23-0.09-0.46-0.32-0.51l-1.21-0.28l4.29-6.24c0.33-0.48,0.24-1.08-0.21-1.51c-0.52-0.48-1.48-0.68-2.37,0.04l-8.04,6.39
				c0,0,0,0,0,0c-0.68,0.48-1.28,1.05-1.79,1.69l0,0c-0.05,0.06-0.09,0.13-0.14,0.19c-0.11,0.14-0.21,0.28-0.31,0.43
				c-0.09,0.13-0.17,0.27-0.25,0.4c-0.06,0.1-0.11,0.19-0.17,0.29c-0.09,0.16-0.17,0.32-0.24,0.48c-0.04,0.08-0.08,0.17-0.11,0.25
				c-0.07,0.17-0.14,0.35-0.2,0.52c-0.03,0.08-0.05,0.17-0.08,0.25c-0.04,0.13-0.09,0.26-0.13,0.39c-0.01,0.05-0.02,0.09-0.03,0.14
				c-0.01,0.02-0.01,0.04-0.02,0.07c-0.15,0.64-0.21,1.28-0.2,1.89c0,1.8,0.63,3.33,1.79,4.46c0.8,0.82,1.83,1.43,3.05,1.72
				l0.46,0.11c0,0,0,0,0,0l0,0l3.25,0.76c0.02,0,0.04,0.01,0.06,0.01c0.21,0.02,0.4-0.12,0.45-0.33
				C37.02,94.02,36.88,93.79,36.66,93.74z"/>
		</g>
		<g>
			<path class="st2" d="M48.13,87.54c0.32-0.21,0.58-0.52,0.73-0.91c0.38-0.99-0.12-2.1-1.11-2.48c-0.16-0.06-0.33-0.1-0.44-0.11
				l-5.34-1.26c-1.05-0.31-2.19,0.28-2.52,1.34c-0.01,0.02-0.01,0.04-0.01,0.06c-0.07,0.45,0.02,0.88,0.21,1.25l-0.13-0.03
				c-1.06-0.31-2.19,0.28-2.52,1.34c-0.01,0.02-0.01,0.04-0.01,0.06c-0.13,0.81,0.25,1.59,0.89,2.01c-0.33,0.25-0.6,0.59-0.73,1.01
				c-0.01,0.02-0.01,0.04-0.01,0.06c-0.15,0.95,0.39,1.85,1.23,2.19c-0.28,0.24-0.51,0.56-0.63,0.93c-0.01,0.02-0.01,0.04-0.01,0.06
				c-0.17,1.09,0.57,2.13,1.63,2.31l2.84,0.66c0.17,0.06,0.33,0.1,0.5,0.12c0.84,0.08,1.66-0.41,1.98-1.23
				c0.17-0.45,0.15-0.93-0.01-1.35l0.24,0.06c0.17,0.06,0.34,0.1,0.5,0.12c0.84,0.08,1.66-0.41,1.98-1.23
				c0.19-0.5,0.16-1.03-0.05-1.48c0.19-0.02,0.37-0.07,0.55-0.15c0.47-0.21,0.83-0.59,1.01-1.07
				C49.21,88.97,48.88,88.02,48.13,87.54z M41.75,83.61l5.42,1.27c0.1,0.01,0.19,0.03,0.28,0.07c0.55,0.21,0.83,0.83,0.62,1.39
				c-0.21,0.55-0.83,0.83-1.44,0.61l-5.39-1.27c-0.62-0.11-1.05-0.7-0.97-1.32C40.47,83.75,41.12,83.42,41.75,83.61z M43.87,94.64
				c-0.21,0.55-0.83,0.83-1.44,0.61l-2.92-0.68c-0.62-0.11-1.05-0.7-0.97-1.32c0.2-0.59,0.85-0.93,1.48-0.74l1.46,0.34l1.76,0.41
				C43.8,93.47,44.08,94.09,43.87,94.64z M46.59,92.23c-0.21,0.55-0.83,0.83-1.44,0.61l-1.66-0.39c-0.14-0.05-0.27-0.08-0.38-0.09
				l-1.2-0.28l-2.99-0.7c-0.62-0.11-1.05-0.7-0.97-1.32c0.2-0.59,0.85-0.93,1.48-0.74l4.91,1.15l1.41,0.33
				c0.07,0.01,0.14,0.02,0.21,0.05C46.52,91.05,46.8,91.68,46.59,92.23z M48.09,89.53c-0.1,0.27-0.3,0.48-0.56,0.6
				c-0.26,0.12-0.55,0.13-0.88,0.01l-0.45-0.11c-0.13-0.05-0.27-0.08-0.37-0.09l-3.98-0.94l-2.19-0.51c0,0,0,0,0,0l-0.87-0.21
				c-0.62-0.11-1.05-0.7-0.97-1.32c0.2-0.59,0.85-0.93,1.48-0.74l7.9,1.85c0.1,0.01,0.19,0.03,0.28,0.07
				C48.03,88.36,48.3,88.98,48.09,89.53z"/>
		</g>
	</g>
	<text transform="matrix(1 0 0 1 25.1222 17.9204)"><tspan x="0" y="0" class="st2 st3 st4">¡ES RE</tspan><tspan x="-5.03" y="11.01" class="st2 st3 st4">POR AHÍ!</tspan></text>
</g>
</svg>
