<?xml version="1.0" encoding="utf-8"?>
<!-- Generator: Adobe Illustrator 23.0.6, SVG Export Plug-In . SVG Version: 6.00 Build 0)  -->
<svg version="1.1" id="Capa_1" xmlns="http://www.w3.org/2000/svg" xmlns:xlink="http://www.w3.org/1999/xlink" x="0px" y="0px"
	 viewBox="0 0 440 300" style="enable-background:new 0 0 440 300;" xml:space="preserve">
<style type="text/css">
	.st0{fill:none;stroke:#FFFFFF;stroke-width:18;stroke-linecap:round;stroke-linejoin:round;stroke-miterlimit:10;}
	.st1{fill:#FFFFFF;}
</style>
<line class="st0" x1="11.09" y1="146" x2="32.91" y2="146"/>
<g>
	<path class="st1" d="M391.68,1.27H48.32c-25.5,0-46.24,20.74-46.24,46.24v204.99c0,25.5,20.74,46.24,46.24,46.24h343.35
		c25.5,0,46.24-20.74,46.24-46.24V47.51C437.91,22.01,417.17,1.27,391.68,1.27z M391.68,280.73H156.91v-86c0-4.97-4.03-9-9-9
		s-9,4.03-9,9v86H48.32c-15.57,0-28.24-12.67-28.24-28.24V47.51c0-15.57,12.67-28.24,28.24-28.24h90.59v36.46c0,4.97,4.03,9,9,9
		s9-4.03,9-9V19.27h234.76c15.57,0,28.24,12.67,28.24,28.24v88.23h-150c-4.97,0-9,4.03-9,9s4.03,9,9,9h150v98.76
		C419.91,268.06,407.25,280.73,391.68,280.73z"/>
	<path class="st1" d="M186.73,63.37c-15.97,0-30.13,7.88-38.82,19.95c-8.69-12.07-22.85-19.95-38.82-19.95
		c-26.37,0-47.82,21.45-47.82,47.82c0,26.37,21.45,47.82,47.82,47.82h17.09l-38.5,38.5c-3.52,3.51-3.52,9.21,0,12.73
		c1.76,1.76,4.06,2.64,6.36,2.64s4.61-0.88,6.36-2.64l47.5-47.5l47.5,47.5c1.76,1.76,4.06,2.64,6.36,2.64c2.3,0,4.61-0.88,6.36-2.64
		c3.52-3.51,3.52-9.21,0-12.73l-38.5-38.5h17.09c26.37,0,47.82-21.45,47.82-47.82C234.55,84.82,213.1,63.37,186.73,63.37z
		 M79.28,111.18c0-16.44,13.38-29.82,29.82-29.82s29.82,13.38,29.82,29.82V141H109.1C92.66,141,79.28,127.62,79.28,111.18z
		 M186.73,141h-29.82v-29.82c0-16.44,13.38-29.82,29.82-29.82c16.44,0,29.82,13.38,29.82,29.82C216.55,127.62,203.17,141,186.73,141
		z"/>
	<circle class="st1" cx="279.91" cy="236.73" r="10"/>
	<circle class="st1" cx="309.91" cy="236.73" r="10"/>
	<circle class="st1" cx="339.91" cy="236.73" r="10"/>
</g>
<path class="st1" d="M379.91,238c0,5.52-4.48,10-10,10c-5.52,0-10-4.48-10-10s4.48-10,10-10C375.44,228,379.91,232.48,379.91,238"/>
</svg>
