<?xml version="1.0" encoding="utf-8"?>
<!-- Generator: Adobe Illustrator 23.0.6, SVG Export Plug-In . SVG Version: 6.00 Build 0)  -->
<svg version="1.1" id="Capa_1" xmlns="http://www.w3.org/2000/svg" xmlns:xlink="http://www.w3.org/1999/xlink" x="0px" y="0px"
	 viewBox="0 0 140 87" style="enable-background:new 0 0 140 87;" xml:space="preserve">
<style type="text/css">
	.st0{enable-background:new    ;}
	.st1{fill:#FBB900;}
	.st2{fill:#FFFFFF;}
	.st3{font-family:'RobotoCondensed-BoldItalic';}
	.st4{font-size:9.1721px;}
</style>
<g>
	<g>
		<g>
			<path class="st2" d="M12.06,43.32c-0.26,0-0.51-0.1-0.71-0.29c-0.39-0.39-0.39-1.03,0-1.42l0.15-0.15
				c4.76-4.87,9.27-3.2,12.22-0.94c0.44,0.34,0.52,0.97,0.19,1.41c-0.34,0.44-0.97,0.52-1.41,0.19c-4.53-3.47-7.62-1.23-9.56,0.75
				l-0.16,0.17C12.57,43.22,12.31,43.32,12.06,43.32z"/>
		</g>
		<g>
			<path class="st2" d="M18.08,57.08c-4.01,0-7.28-3.27-7.28-7.28s3.27-7.28,7.28-7.28s7.28,3.27,7.28,7.28S22.09,57.08,18.08,57.08
				z M18.08,44.53c-2.91,0-5.27,2.37-5.27,5.27s2.37,5.27,5.27,5.27s5.27-2.37,5.27-5.27S20.99,44.53,18.08,44.53z"/>
		</g>
		<g>
			<path class="st2" d="M20.09,49.8c0,1.11-0.9,2.01-2.01,2.01c-1.11,0-2.01-0.9-2.01-2.01s0.9-2.01,2.01-2.01
				C19.19,47.8,20.09,48.69,20.09,49.8"/>
		</g>
		<g>
			<path class="st2" d="M36.15,57.08c-4.01,0-7.28-3.27-7.28-7.28s3.27-7.28,7.28-7.28s7.28,3.27,7.28,7.28S40.17,57.08,36.15,57.08
				z M36.15,44.53c-2.91,0-5.27,2.37-5.27,5.27s2.37,5.27,5.27,5.27s5.27-2.37,5.27-5.27S39.06,44.53,36.15,44.53z"/>
		</g>
		<g>
			<path class="st2" d="M38.16,49.8c0,1.11-0.9,2.01-2.01,2.01c-1.11,0-2.01-0.9-2.01-2.01s0.9-2.01,2.01-2.01
				C37.26,47.8,38.16,48.69,38.16,49.8"/>
		</g>
		<g>
			<path class="st2" d="M35.15,69.42H19.08c-0.38,0-0.73-0.22-0.9-0.56c-0.14-0.28-0.14-0.61,0-0.89c0.02-0.07,0.05-0.18,0.08-0.31
				c1.36-5.5,4.48-8.28,9.28-8.29c0,0,0,0,0.01,0c6.34,0,7.87,6.1,8.37,8.1c0.05,0.2,0.09,0.36,0.12,0.47
				c0.15,0.28,0.16,0.63,0.02,0.92C35.88,69.21,35.53,69.42,35.15,69.42z M35.95,67.81L35.95,67.81L35.95,67.81z M20.41,67.42h13.41
				c-0.8-2.92-2.3-6.03-6.27-6.03c0,0,0,0,0,0C22.89,61.39,21.21,64.64,20.41,67.42z"/>
		</g>
		<g>
			<path class="st2" d="M27.12,78.46c-4.04,0-8.03-1.02-11.55-2.94c-0.49-0.27-0.66-0.88-0.4-1.36c0.27-0.49,0.88-0.67,1.36-0.4
				c3.22,1.76,6.88,2.7,10.58,2.7c3.82,0,7.58-0.99,10.88-2.86c0.48-0.27,1.09-0.1,1.37,0.38c0.27,0.48,0.1,1.1-0.38,1.37
				C35.39,77.38,31.28,78.46,27.12,78.46z"/>
		</g>
		<g>
			<path class="st2" d="M49.99,58.54c-0.05,0-0.09,0-0.14-0.01c-0.55-0.08-0.93-0.58-0.86-1.13c0.14-1,0.21-2.02,0.21-3.04
				c0-12.18-9.91-22.09-22.09-22.09c-12.1,0-21.8,9.71-22.09,22.11C5,55.25,5.05,55.63,5.12,56.2c0.04,0.32,0.08,0.67,0.12,1.17
				c0.04,0.55-0.37,1.04-0.92,1.08c-0.57,0.04-1.04-0.37-1.08-0.92c-0.04-0.46-0.08-0.8-0.11-1.09c-0.07-0.58-0.13-1.09-0.11-2.1
				c0.31-13.5,10.9-24.08,24.1-24.08c13.29,0,24.1,10.81,24.1,24.1c0,1.11-0.08,2.22-0.23,3.31C50.92,58.18,50.49,58.54,49.99,58.54
				z"/>
		</g>
		<g>
			<path class="st2" d="M40.98,83.8c-0.1,0-0.2-0.01-0.29-0.04c-0.53-0.16-0.83-0.72-0.67-1.25c0.49-1.59,0.74-2.28,0.89-2.69
				c0.18-0.5,0.19-0.52,0.41-1.88c-0.56-2.06-0.77-4.12-0.64-6.14c0.07-1.04,0.57-1.87,1.09-2.75c0.72-1.2,1.53-2.57,1.77-5.06
				c0.08-0.76,0.14-1.43,0.2-2.03c0.31-3.3,0.45-4.8,1.94-4.81c0,0,0.01,0,0.01,0c2.68,0,4.44,7.01,4.76,8.89
				c0.63,3.65-1.08,8.34-1.6,9.65l1.27,4.21c0.16,0.53-0.14,1.09-0.67,1.25c-0.53,0.16-1.09-0.14-1.25-0.67l-1.37-4.55
				c-0.07-0.23-0.05-0.47,0.04-0.68c0.02-0.05,2.23-5.26,1.61-8.86c-0.52-3.04-1.7-5.72-2.46-6.78c-0.1,0.62-0.19,1.57-0.28,2.54
				c-0.06,0.6-0.12,1.28-0.2,2.04c-0.27,2.94-1.3,4.65-2.04,5.9c-0.45,0.75-0.77,1.3-0.81,1.85c-0.12,1.86,0.09,3.77,0.63,5.68
				c0.04,0.14,0.05,0.29,0.03,0.44c-0.28,1.7-0.29,1.76-0.54,2.47c-0.14,0.39-0.38,1.04-0.85,2.59
				C41.81,83.52,41.41,83.8,40.98,83.8z M45.56,59.13L45.56,59.13L45.56,59.13z"/>
		</g>
		<g>
			<path class="st2" d="M13.63,83.8c-0.43,0-0.83-0.28-0.96-0.71c-0.47-1.54-0.71-2.2-0.85-2.59c-0.26-0.7-0.27-0.77-0.54-2.43
				c-0.02-0.15-0.02-0.33,0.02-0.47c0.54-1.91,0.75-3.82,0.63-5.68c-0.04-0.56-0.36-1.1-0.81-1.85c-0.75-1.25-1.77-2.96-2.04-5.91
				c-0.08-0.75-0.14-1.43-0.2-2.03c-0.09-0.97-0.18-1.92-0.28-2.54c-0.76,1.06-1.93,3.74-2.46,6.78c-0.62,3.6,1.58,8.81,1.61,8.86
				c0.09,0.22,0.11,0.46,0.04,0.68l-1.37,4.55c-0.16,0.53-0.72,0.83-1.25,0.67c-0.53-0.16-0.83-0.72-0.67-1.25l1.27-4.21
				c-0.52-1.31-2.23-6-1.6-9.65c0.32-1.88,2.08-8.89,4.76-8.89c0,0,0.01,0,0.01,0c1.49,0.01,1.63,1.51,1.94,4.8
				c0.06,0.6,0.12,1.27,0.2,2.02c0.23,2.51,1.05,3.87,1.77,5.07c0.52,0.88,1.02,1.71,1.09,2.75c0.13,2.02-0.08,4.08-0.64,6.14
				c0.22,1.36,0.23,1.38,0.41,1.88c0.15,0.41,0.4,1.1,0.89,2.69c0.16,0.53-0.14,1.09-0.67,1.25C13.83,83.79,13.73,83.8,13.63,83.8z"
				/>
		</g>
		<g>
			<path class="st2" d="M42.66,43.32c-0.26,0-0.51-0.1-0.71-0.29l-0.16-0.17c-1.94-1.98-5.04-4.22-9.56-0.75
				c-0.44,0.34-1.07,0.25-1.41-0.19c-0.34-0.44-0.25-1.07,0.19-1.41c2.95-2.26,7.46-3.93,12.22,0.94l0.15,0.15
				c0.39,0.39,0.39,1.03,0,1.42C43.18,43.22,42.92,43.32,42.66,43.32z"/>
		</g>
	</g>
	<path class="st1" d="M134.23,1.93c-23.07-0.01-46.14-0.01-69.21,0c-3.46,0-4.1,0.64-4.1,4.06c-0.01,9.53-0.03,19.07,0.02,28.6
		c0.01,1.73-0.47,3.07-1.75,4.26c-1.81,1.69-3.51,3.48-5.26,5.24c-0.78,0.79-1.09,1.73-0.7,2.79c0.41,1.12,1.33,1.47,2.43,1.48
		c0.65,0.01,1.31,0.01,1.96,0.01c12.59,0,25.18,0,37.77,0c12.95,0,25.91,0,38.86,0c3.34,0,3.74-0.41,3.74-3.8
		C138,31.62,138,18.67,138,5.72C138,2.37,137.57,1.93,134.23,1.93z"/>
	<text transform="matrix(1 0 0 1 78.48 21.2531)"><tspan x="0" y="0" class="st2 st3 st4">ME PARECE</tspan><tspan x="-2.85" y="11.01" class="st2 st3 st4">QUE NO DA...</tspan></text>
</g>
</svg>
