<?xml version="1.0" encoding="utf-8"?>
<!-- Generator: Adobe Illustrator 23.0.6, SVG Export Plug-In . SVG Version: 6.00 Build 0)  -->
<svg version="1.1" id="Capa_1" xmlns="http://www.w3.org/2000/svg" xmlns:xlink="http://www.w3.org/1999/xlink" x="0px" y="0px"
	 viewBox="0 0 132.49 50.2" style="enable-background:new 0 0 132.49 50.2;" xml:space="preserve">
<style type="text/css">
	.st0{fill:#FFFFFF;}
	.st1{fill:none;}
	.st2{clip-path:url(#SVGID_2_);}
</style>
<g>
	<g>
		<path class="st0" d="M25.16,49.1c-13.23,0-24-10.77-24-24s10.77-24,24-24c13.23,0,24,10.77,24,24S38.4,49.1,25.16,49.1z
			 M25.16,3.1c-12.13,0-22,9.87-22,22s9.87,22,22,22c12.13,0,22-9.87,22-22S37.29,3.1,25.16,3.1z"/>
	</g>
	<g>
		<path class="st0" d="M16.66,25.85c-3.01,0-5.46-2.45-5.46-5.46c0-3.01,2.45-5.46,5.46-5.46c3.01,0,5.46,2.45,5.46,5.46
			C22.12,23.4,19.67,25.85,16.66,25.85z M16.66,16.93c-1.91,0-3.46,1.55-3.46,3.46s1.55,3.46,3.46,3.46s3.46-1.55,3.46-3.46
			S18.57,16.93,16.66,16.93z"/>
	</g>
	<g>
		<path class="st0" d="M17.14,21.82c0,1.1-0.9,2-2,2c-1.1,0-2-0.9-2-2c0-1.1,0.9-2,2-2C16.24,19.82,17.14,20.72,17.14,21.82"/>
	</g>
	<g>
		<path class="st0" d="M34.11,29.02c-3.91,0-7.09-3.18-7.09-7.09c0-3.91,3.18-7.09,7.09-7.09c3.91,0,7.09,3.18,7.09,7.09
			C41.2,25.84,38.02,29.02,34.11,29.02z M34.11,16.84c-2.81,0-5.09,2.28-5.09,5.09s2.28,5.09,5.09,5.09c2.81,0,5.09-2.28,5.09-5.09
			S36.92,16.84,34.11,16.84z"/>
	</g>
	<g>
		<path class="st0" d="M39.37,20.39c0,1.51-1.23,2.73-2.73,2.73c-1.51,0-2.73-1.22-2.73-2.73c0-1.51,1.22-2.73,2.73-2.73
			C38.15,17.66,39.37,18.88,39.37,20.39"/>
	</g>
	<g>
		<path class="st0" d="M28.24,14.04c-0.29,0-0.57-0.12-0.77-0.36c-0.35-0.42-0.3-1.05,0.13-1.41c0.74-0.62,2.76-2.03,5.61-1.87
			c2.29,0.13,3.91,1.23,4.68,1.87c0.42,0.35,0.48,0.99,0.12,1.41c-0.35,0.42-0.99,0.48-1.41,0.12c-0.58-0.48-1.8-1.3-3.51-1.4
			c-2.14-0.13-3.65,0.94-4.21,1.41C28.7,13.96,28.47,14.04,28.24,14.04z"/>
	</g>
	<g>
		<path class="st0" d="M12.16,13.67c-0.29,0-0.57-0.12-0.77-0.36c-0.35-0.42-0.3-1.05,0.13-1.41c0.74-0.62,2.76-2.03,5.61-1.87
			c2.29,0.13,3.91,1.23,4.67,1.87c0.42,0.35,0.48,0.99,0.12,1.41s-0.99,0.48-1.41,0.12c-0.58-0.48-1.8-1.3-3.51-1.4
			c-2.13-0.13-3.65,0.94-4.21,1.41C12.62,13.59,12.39,13.67,12.16,13.67z"/>
	</g>
	<g>
		<path class="st0" d="M20.27,41.21c-0.14,0-0.29-0.03-0.43-0.1c-4.36-2.05-4.55-7.1-4.62-8.99c-0.01-0.21-0.01-0.38-0.02-0.49
			c-0.09-0.31-0.03-0.65,0.17-0.9c0.24-0.3,0.62-0.44,1-0.36l15.65,3.35c0.37,0.08,0.66,0.36,0.76,0.72
			c0.08,0.3,0.01,0.62-0.18,0.87c-0.04,0.06-0.08,0.16-0.14,0.28c-0.34,0.69-0.96,1.96-2.02,3.2c-0.03,0.04-0.06,0.09-0.1,0.12
			c-0.38,0.4-1.01,0.42-1.41,0.03c-0.33-0.31-0.4-0.78-0.21-1.17c0.04-0.08,0.09-0.16,0.15-0.23c0.65-0.75,1.12-1.54,1.44-2.15
			l-13.07-2.8c0.1,1.91,0.5,5.32,3.45,6.7c0.5,0.24,0.71,0.83,0.48,1.33C21,41,20.64,41.21,20.27,41.21z M15.26,31.78
			C15.26,31.78,15.26,31.78,15.26,31.78C15.26,31.78,15.26,31.78,15.26,31.78z"/>
	</g>
	<g>
		<path class="st0" d="M23.79,45.48c-0.26,0-0.51-0.03-0.76-0.08c-1.23-0.27-2.76-1.32-3.03-4.83c-0.16-2.12,0.12-4.88,0.85-8.22
			c0.12-0.54,0.65-0.88,1.19-0.76c0.54,0.12,0.88,0.65,0.76,1.19c-0.68,3.1-0.96,5.74-0.81,7.64c0.1,1.26,0.43,2.81,1.46,3.03
			c1.94,0.41,4.98-3.12,6.24-8.88c0.12-0.54,0.65-0.88,1.19-0.76c0.54,0.12,0.88,0.65,0.76,1.19
			C30.29,41.18,27.01,45.48,23.79,45.48z"/>
	</g>
	<g>
		<rect x="1.16" y="1.1" class="st1" width="48" height="48"/>
	</g>
	<g>
		<defs>
			<rect id="SVGID_1_" x="56.14" y="8.72" width="75.19" height="34.27"/>
		</defs>
		<clipPath id="SVGID_2_">
			<use xlink:href="#SVGID_1_"  style="overflow:visible;"/>
		</clipPath>
		<g class="st2">
			<path class="st0" d="M98.14,36.72c-0.55,0-1-0.45-1-1v-23c0-1.1-0.9-2-2-2s-2,0.9-2,2v23c0,0.55-0.45,1-1,1s-1-0.45-1-1v-23
				c0-2.21,1.79-4,4-4s4,1.79,4,4v23C99.14,36.27,98.7,36.72,98.14,36.72z"/>
		</g>
		<g class="st2">
			<path class="st0" d="M91.14,26.72c-3.86,0-7-3.14-7-7v-2c0-1.65,1.35-3,3-3s3,1.35,3,3v2c0,0.55,0.45,1,1,1c0.55,0,1,0.45,1,1
				s-0.45,1-1,1c-1.65,0-3-1.35-3-3v-2c0-0.55-0.45-1-1-1s-1,0.45-1,1v2c0,2.76,2.24,5,5,5c0.55,0,1,0.45,1,1
				S91.7,26.72,91.14,26.72z"/>
		</g>
		<g class="st2">
			<path class="st0" d="M99.14,30.72c-0.55,0-1-0.45-1-1s0.45-1,1-1c2.76,0,5-2.24,5-5v-5c0-0.55-0.45-1-1-1s-1,0.45-1,1v5
				c0,1.65-1.35,3-3,3c-0.55,0-1-0.45-1-1s0.45-1,1-1c0.55,0,1-0.45,1-1v-5c0-1.65,1.35-3,3-3s3,1.35,3,3v5
				C106.14,27.58,103,30.72,99.14,30.72z"/>
		</g>
		<g class="st2">
			<path class="st0" d="M85.73,43c-0.73,0-1.18-0.13-1.6-0.25l-0.23-0.06c-1.14-0.28-2.34-1.12-3.73-2.08
				c-1.58-1.1-3.36-2.35-5.32-2.93c-3.98-1.18-5.46-1.11-7.69-1c-0.31,0.02-0.64,0.03-0.99,0.04c-2.86,0.11-5.72,1.06-8.5,2.84
				c-0.47,0.3-1.08,0.16-1.38-0.3c-0.3-0.47-0.16-1.08,0.3-1.38c3.08-1.97,6.28-3.04,9.5-3.16l0.97-0.04
				c2.35-0.12,4.04-0.2,8.35,1.08c2.27,0.67,4.19,2.02,5.9,3.21c1.17,0.82,2.28,1.59,3.06,1.78c0.1,0.02,0.2,0.05,0.3,0.08
				c0.78,0.22,2.08,0.59,9.11-2.05c6.02-2.26,10.41-2.07,15.55-1.04c4.56,0.91,5.59,0.98,5.8,0.98c0.55,0,1,0.45,1,1s-0.45,1-1,1
				c-0.72,0-2.8-0.34-6.17-1.02c-4.94-0.99-8.88-1.15-14.47,0.95C89.48,42.53,87.11,43,85.73,43z"/>
		</g>
		<g class="st2">
			<path class="st0" d="M57.14,27.72c-0.15,0-0.31-0.04-0.46-0.11c-0.49-0.25-0.68-0.86-0.43-1.35c0.74-1.44,2.12-3.38,4.47-4.45
				c1.51-0.69,2.2-1.22,3.24-2.02c0.64-0.5,1.45-1.12,2.62-1.9c1.83-1.22,3.24-2.88,4.61-4.48c2.05-2.41,3.99-4.68,6.91-4.68
				c0.01,0,0.02,0,0.04,0c2.33,0.02,4.85,3.41,5.94,6.68c0.17,0.52-0.11,1.09-0.63,1.27c-0.53,0.18-1.09-0.11-1.27-0.63
				c-0.95-2.86-3.03-5.31-4.06-5.32c-0.01,0-0.02,0-0.02,0c-2,0-3.5,1.76-5.39,3.98c-1.39,1.63-2.96,3.47-5.02,4.85
				c-1.12,0.74-1.86,1.32-2.51,1.82c-1.07,0.83-1.91,1.48-3.63,2.26c-1.83,0.83-2.93,2.39-3.53,3.55
				C57.85,27.52,57.5,27.72,57.14,27.72z"/>
		</g>
		<g class="st2">
			<path class="st0" d="M130.33,33c-0.03,0-0.07,0-0.11-0.01c-2.94-0.31-9.45-2.23-11.26-4.43c-0.97-1.18-3.07-1.72-3.89-1.84
				c-0.44,0.01-3.05,0.09-5.62,0.95c-1.11,0.37-2.42,0.06-2.56,0.02c-0.54-0.14-0.86-0.68-0.72-1.22s0.68-0.86,1.22-0.72
				c0.22,0.05,0.97,0.18,1.44,0.02c3.12-1.04,6.19-1.05,6.31-1.05c0.04,0,0.09,0,0.13,0.01c0.14,0.02,3.54,0.49,5.24,2.56
				c1.18,1.45,6.77,3.38,9.92,3.71c0.55,0.06,0.95,0.55,0.89,1.1C131.27,32.61,130.84,33,130.33,33z"/>
		</g>
	</g>
</g>
</svg>
