<?xml version="1.0" encoding="utf-8"?>
<!-- Generator: Adobe Illustrator 23.0.6, SVG Export Plug-In . SVG Version: 6.00 Build 0)  -->
<svg version="1.1" id="Capa_1" xmlns="http://www.w3.org/2000/svg" xmlns:xlink="http://www.w3.org/1999/xlink" x="0px" y="0px"
	 viewBox="0 0 70 98.35" style="enable-background:new 0 0 70 98.35;" xml:space="preserve">
<style type="text/css">
	.st0{enable-background:new    ;}
	.st1{fill:#FBB900;}
	.st2{fill:#FFFFFF;}
	.st3{font-family:'RobotoCondensed-BoldItalic';}
	.st4{font-size:9.1721px;}
</style>
<g>
	<g>
		<g>
			<path class="st2" d="M10.69,60.39c-0.23,0-0.45-0.09-0.63-0.26c-0.35-0.35-0.35-0.91,0-1.26l0.13-0.13
				c4.21-4.31,8.2-2.83,10.8-0.83c0.39,0.3,0.46,0.86,0.16,1.24c-0.3,0.39-0.85,0.46-1.24,0.16c-4-3.07-6.74-1.09-8.45,0.67
				l-0.14,0.15C11.15,60.31,10.92,60.39,10.69,60.39z"/>
		</g>
		<g>
			<path class="st2" d="M16.02,72.56c-3.55,0-6.43-2.89-6.43-6.43c0-3.55,2.89-6.43,6.43-6.43s6.43,2.89,6.43,6.43
				C22.45,69.68,19.57,72.56,16.02,72.56z M16.02,61.47c-2.57,0-4.66,2.09-4.66,4.66c0,2.57,2.09,4.66,4.66,4.66
				s4.66-2.09,4.66-4.66C20.68,63.56,18.59,61.47,16.02,61.47z"/>
		</g>
		<g>
			<path class="st2" d="M17.79,66.13c0,0.98-0.8,1.78-1.78,1.78c-0.98,0-1.78-0.8-1.78-1.78c0-0.98,0.8-1.78,1.78-1.78
				C17,64.35,17.79,65.15,17.79,66.13"/>
		</g>
		<g>
			<path class="st2" d="M31.99,72.56c-3.55,0-6.43-2.89-6.43-6.43c0-3.55,2.89-6.43,6.43-6.43s6.43,2.89,6.43,6.43
				C38.43,69.68,35.54,72.56,31.99,72.56z M31.99,61.47c-2.57,0-4.66,2.09-4.66,4.66c0,2.57,2.09,4.66,4.66,4.66
				s4.66-2.09,4.66-4.66C36.65,63.56,34.56,61.47,31.99,61.47z"/>
		</g>
		<g>
			<path class="st2" d="M33.77,66.13c0,0.98-0.8,1.78-1.78,1.78c-0.98,0-1.78-0.8-1.78-1.78c0-0.98,0.8-1.78,1.78-1.78
				C32.97,64.35,33.77,65.15,33.77,66.13"/>
		</g>
		<g>
			<path class="st2" d="M31.11,83.47h-14.2c-0.34,0-0.65-0.19-0.8-0.49c-0.12-0.25-0.12-0.54,0-0.78c0.02-0.06,0.04-0.16,0.07-0.28
				c1.2-4.86,3.96-7.32,8.2-7.33c0,0,0,0,0.01,0c5.6,0,6.95,5.39,7.4,7.16c0.05,0.18,0.08,0.32,0.11,0.41
				c0.14,0.25,0.14,0.56,0.01,0.82C31.75,83.28,31.44,83.47,31.11,83.47z M31.82,82.05L31.82,82.05L31.82,82.05z M18.08,81.7h11.86
				c-0.71-2.58-2.03-5.33-5.55-5.33c0,0,0,0,0,0C20.27,76.37,18.78,79.24,18.08,81.7z"/>
		</g>
		<g>
			<path class="st2" d="M24.01,91.46c-3.57,0-7.1-0.9-10.21-2.6c-0.43-0.23-0.59-0.77-0.35-1.2c0.24-0.43,0.77-0.59,1.2-0.35
				c2.85,1.56,6.08,2.38,9.35,2.38c3.38,0,6.7-0.87,9.62-2.53c0.42-0.24,0.97-0.09,1.21,0.33c0.24,0.43,0.09,0.97-0.33,1.21
				C31.32,90.5,27.69,91.46,24.01,91.46z"/>
		</g>
		<g>
			<path class="st2" d="M44.23,73.85c-0.04,0-0.08,0-0.12-0.01c-0.49-0.07-0.83-0.51-0.76-1c0.12-0.88,0.18-1.79,0.18-2.69
				c0-10.77-8.76-19.53-19.53-19.53c-10.7,0-19.27,8.59-19.53,19.55c-0.02,0.77,0.02,1.1,0.08,1.6c0.03,0.28,0.07,0.6,0.1,1.03
				c0.04,0.49-0.33,0.92-0.82,0.95c-0.5,0.03-0.92-0.33-0.95-0.82c-0.03-0.41-0.07-0.7-0.1-0.96c-0.06-0.51-0.11-0.96-0.09-1.85
				C2.98,58.2,12.34,48.85,24,48.85c11.75,0,21.3,9.56,21.3,21.3c0,0.98-0.07,1.97-0.2,2.93C45.05,73.53,44.67,73.85,44.23,73.85z"
				/>
		</g>
		<g>
			<path class="st2" d="M36.26,96.18c-0.09,0-0.17-0.01-0.26-0.04c-0.47-0.14-0.73-0.64-0.59-1.11c0.43-1.41,0.65-2.02,0.78-2.38
				c0.16-0.44,0.17-0.46,0.36-1.66c-0.49-1.82-0.68-3.64-0.57-5.43c0.06-0.92,0.5-1.65,0.96-2.43c0.64-1.06,1.35-2.27,1.56-4.48
				c0.07-0.67,0.12-1.26,0.17-1.79c0.27-2.91,0.4-4.24,1.72-4.25c0,0,0.01,0,0.01,0c2.37,0,3.92,6.2,4.21,7.86
				c0.55,3.23-0.96,7.37-1.41,8.53l1.12,3.72c0.14,0.47-0.12,0.96-0.59,1.11c-0.47,0.14-0.96-0.13-1.11-0.59l-1.21-4.02
				c-0.06-0.2-0.05-0.41,0.03-0.61c0.02-0.05,1.97-4.65,1.42-7.84c-0.46-2.69-1.5-5.06-2.17-6c-0.09,0.55-0.16,1.38-0.24,2.25
				c-0.05,0.53-0.11,1.13-0.17,1.8c-0.24,2.6-1.15,4.11-1.8,5.21c-0.4,0.66-0.68,1.15-0.72,1.64c-0.11,1.65,0.08,3.33,0.56,5.02
				c0.04,0.13,0.04,0.26,0.02,0.38c-0.24,1.5-0.25,1.56-0.48,2.18c-0.13,0.34-0.34,0.92-0.75,2.29C37,95.93,36.64,96.18,36.26,96.18
				z M40.31,74.37L40.31,74.37L40.31,74.37z"/>
		</g>
		<g>
			<path class="st2" d="M12.09,96.18c-0.38,0-0.73-0.25-0.85-0.63c-0.42-1.36-0.63-1.94-0.75-2.29c-0.23-0.62-0.24-0.68-0.47-2.15
				c-0.02-0.13-0.02-0.29,0.02-0.42c0.48-1.69,0.67-3.38,0.56-5.02c-0.03-0.49-0.32-0.97-0.72-1.64c-0.66-1.1-1.56-2.61-1.8-5.22
				C8,78.16,7.94,77.56,7.89,77.03c-0.08-0.86-0.16-1.69-0.24-2.24c-0.68,0.94-1.71,3.31-2.17,6c-0.55,3.18,1.4,7.79,1.42,7.84
				c0.08,0.19,0.09,0.41,0.03,0.61l-1.21,4.02c-0.14,0.47-0.64,0.73-1.11,0.59c-0.47-0.14-0.74-0.64-0.59-1.11l1.12-3.72
				c-0.46-1.16-1.97-5.31-1.41-8.53c0.29-1.66,1.84-7.86,4.21-7.86c0,0,0.01,0,0.01,0c1.32,0.01,1.44,1.33,1.71,4.25
				c0.05,0.53,0.1,1.12,0.17,1.79c0.21,2.22,0.93,3.42,1.56,4.49c0.46,0.78,0.9,1.51,0.96,2.43c0.12,1.78-0.07,3.61-0.57,5.43
				c0.2,1.2,0.2,1.22,0.36,1.66c0.13,0.36,0.35,0.97,0.78,2.38c0.14,0.47-0.12,0.96-0.59,1.11C12.26,96.17,12.17,96.18,12.09,96.18z
				"/>
		</g>
		<g>
			<path class="st2" d="M37.75,60.39c-0.23,0-0.45-0.09-0.63-0.26l-0.14-0.15c-1.71-1.75-4.45-3.73-8.45-0.67
				c-0.39,0.3-0.95,0.22-1.24-0.16c-0.3-0.39-0.22-0.95,0.16-1.24c2.6-2,6.59-3.47,10.8,0.83l0.13,0.13c0.35,0.35,0.35,0.91,0,1.26
				C38.2,60.31,37.97,60.39,37.75,60.39z"/>
		</g>
	</g>
	<path class="st1" d="M64.99,2.17H8.93c-1.54,0-2.79,1.16-2.97,2.66L5.93,4.81c0,0.12,0,0.24,0,0.35c0,0,0,0.01,0,0.01v31.5
		c0,0,0,0.01,0,0.01c0,1.97,0,3.93,0,5.9c0,0.65,0,1.31,0.01,1.96c0.01,1.1,0.37,2.02,1.48,2.43c1.07,0.39,2.01,0.08,2.79-0.7
		c1.76-1.74,3.55-3.45,5.24-5.26c0.59-0.63,1.21-1.06,1.91-1.34h47.63c1.66,0,3-1.34,3-3V5.17C67.99,3.52,66.64,2.17,64.99,2.17z"/>
	<text transform="matrix(1 0 0 1 16.6138 18.2618)"><tspan x="0" y="0" class="st2 st3 st4">ME PARECE</tspan><tspan x="-2.85" y="11.01" class="st2 st3 st4">QUE NO DA...</tspan></text>
</g>
</svg>
