<?xml version="1.0" encoding="utf-8"?>
<!-- Generator: Adobe Illustrator 23.0.6, SVG Export Plug-In . SVG Version: 6.00 Build 0)  -->
<svg version="1.1" id="Capa_1" xmlns="http://www.w3.org/2000/svg" xmlns:xlink="http://www.w3.org/1999/xlink" x="0px" y="0px"
	 viewBox="0 0 265 261" style="enable-background:new 0 0 265 261;" xml:space="preserve">
<style type="text/css">
	.st0{fill:#FFFFFF;}
</style>
<g>
	<path class="st0" d="M159.2,222.29c-3.93-3.93-9.57-5.84-15.09-5.09l-1.25,0.17c-5.03,0.67-10.17-1.06-13.75-4.64l-1.9-1.9
		l6.98-6.98c0.77-0.77,1.85-1.17,2.92-1.19l6.75,0.08c12.64,0.15,25.01-4.89,33.95-13.83l60.24-60.24c7.01-7.01,7.01-18.41,0-25.42
		l-1.22-1.22c-2.7-2.7-6.05-4.35-9.54-4.97c1.33-2.54,2.04-5.37,2.04-8.32c0-4.8-1.87-9.32-5.26-12.71l-2.61-2.61
		c-2.69-2.69-6.03-4.34-9.52-4.96c0.88-2.14,1.34-4.46,1.34-6.84c0-4.8-1.87-9.32-5.26-12.71l-2.61-2.61
		c-2.73-2.73-6.19-4.46-9.94-5.03c2.67-6.51,1.38-14.28-3.9-19.56c-6.5-6.5-16.79-6.96-23.84-1.39c-3.56-10.23-13.3-17.6-24.73-17.6
		H98.05c-2.49,0-4.5,2.01-4.5,4.5v9.01c0,3.37,0.68,6.58,1.92,9.5c-6.59-2.69-14.44-1.36-19.77,3.97l-2.17,2.17
		c-3.44,3.44-5.33,8.01-5.33,12.87c0,2.29,0.44,4.52,1.24,6.6c-3.72,0.56-7.3,2.24-10.15,5.1l-2.17,2.17c0,0,0,0,0,0
		c-5.18,5.18-6.56,12.74-4.18,19.2c-3.69,0.57-7.23,2.25-10.07,5.09l-3.72,3.72v0c-5.72,5.72-6.82,14.32-3.33,21.16
		c-3.43,0.72-6.58,2.4-9.12,4.94c-7.1,7.1-7.1,18.65,0,25.75l11.34,11.33L4.13,183.7c-1.76,1.76-1.76,4.61,0,6.36
		c0.88,0.88,2.03,1.32,3.18,1.32s2.3-0.44,3.18-1.32l34.01-34.01c3.19,2.51,7.1,3.89,11.23,3.89c4.86,0,9.44-1.89,12.87-5.33
		c3.44-3.44,5.33-8.01,5.33-12.87c0-0.38-0.03-0.75-0.05-1.12c0.37,0.02,0.74,0.05,1.12,0.05c4.86,0,9.44-1.89,12.87-5.33l3.72-3.72
		c3.83-3.83,5.58-8.97,5.27-14c0.37,0.02,0.75,0.05,1.12,0.05c4.66,0,9.32-1.77,12.87-5.32l2.17-2.17
		c3.87-3.87,5.61-9.07,5.26-14.14c0.42,0.03,0.85,0.06,1.27,0.06c4.66,0,9.32-1.77,12.87-5.32l2.17-2.17
		c6.57-6.57,7.05-16.96,1.44-24.1l31.8-31.8c0,0,0,0,0,0l4.64-4.64c3.5-3.5,9.2-3.5,12.7,0c3.5,3.5,3.5,9.2,0,12.7l-26.96,26.96
		c-1.76,1.76-1.76,4.61,0,6.36c0.03,0.03,0.06,0.05,0.09,0.07c0.03,0.03,0.05,0.06,0.07,0.09c1.76,1.76,4.61,1.76,6.36,0
		l21.58-21.58c1.7-1.7,3.95-2.63,6.35-2.63s4.65,0.93,6.35,2.63l2.61,2.61c1.7,1.7,2.63,3.95,2.63,6.35c0,2.4-0.93,4.65-2.63,6.35
		l-4.14,4.14c-0.51,0.41-1.01,0.85-1.48,1.32L181.44,88c-1.76,1.76-1.76,4.61,0,6.36c0.01,0.01,0.03,0.02,0.05,0.04
		c0.01,0.01,0.02,0.03,0.03,0.04c0.88,0.88,2.03,1.32,3.18,1.32s2.3-0.44,3.18-1.32l15.54-15.54c3.51-2.57,8.48-2.29,11.65,0.88
		l2.61,2.61c1.7,1.7,2.63,3.95,2.63,6.35c0,2.4-0.93,4.65-2.63,6.35l-13.68,13.68c-1.76,1.76-1.76,4.61,0,6.36
		c0.05,0.05,0.12,0.09,0.18,0.14c0.05,0.06,0.09,0.13,0.15,0.18c1.76,1.76,4.61,1.76,6.36,0l7.07-7.07c3.5-3.5,9.2-3.5,12.7,0
		l1.22,1.22c3.5,3.5,3.5,9.2,0,12.69l-60.24,60.24c-7.23,7.23-17.24,11.33-27.48,11.2l-6.75-0.08c-3.5-0.01-6.91,1.35-9.38,3.82
		l-52.84,52.84c-1.76,1.76-1.76,4.61,0,6.36c0.88,0.88,2.03,1.32,3.18,1.32c1.15,0,2.3-0.44,3.18-1.32l39.5-39.5l1.89,1.89
		c5.56,5.56,13.53,8.26,21.32,7.2l1.25-0.17c2.75-0.38,5.56,0.58,7.52,2.54l28.32,28.32c0.88,0.88,2.03,1.32,3.18,1.32
		s2.3-0.44,3.18-1.32c1.76-1.76,1.76-4.61,0-6.36L159.2,222.29z M102.55,11.71h40.44c9.08,0,16.52,7.08,17.13,16.01l-30.32,30.32
		l-18.21-18.21c2.05,0.56,4.21,0.87,6.44,0.87h18.46c2.49,0,4.5-2.01,4.5-4.5s-2.01-4.5-4.5-4.5h-18.46
		c-8.54,0-15.48-6.95-15.48-15.48V11.71z M64.94,141.74c0,2.46-0.96,4.77-2.7,6.51c-1.74,1.74-4.05,2.7-6.51,2.7
		s-4.77-0.96-6.51-2.7l-16.15-16.15c-3.59-3.59-3.59-9.43,0-13.02c1.79-1.79,4.15-2.69,6.51-2.69c1.83,0,3.66,0.55,5.23,1.63
		l17.33,17.32c0.3,0.3,0.62,0.57,0.94,0.85C64.28,137.78,64.94,139.7,64.94,141.74z M85.24,125.25l-3.72,3.72
		c-1.74,1.74-4.05,2.7-6.51,2.7c-2.03,0-3.96-0.66-5.55-1.87c-0.28-0.32-0.55-0.63-0.85-0.93l-16.15-16.15
		c-0.54-0.54-1.12-1.03-1.72-1.5l-5.22-5.22c-3.59-3.59-3.59-9.43,0-13.02v0l3.72-3.72c1.8-1.79,4.15-2.69,6.51-2.69
		c1.82,0,3.63,0.54,5.19,1.61l24.18,24.18c0.31,0.3,0.63,0.58,0.95,0.86C88.79,116.81,88.52,121.97,85.24,125.25z M106.67,103.82
		l-2.17,2.17c-3.28,3.28-8.44,3.55-12.05,0.83c-0.28-0.32-0.55-0.64-0.86-0.95L68.62,82.89c-0.56-0.56-1.15-1.05-1.75-1.52
		l-3.39-3.39c-3.59-3.59-3.59-9.43,0-13.02l2.17-2.17c1.74-1.74,4.05-2.7,6.51-2.7s4.77,0.96,6.51,2.7l28,28
		C110.26,94.39,110.26,100.23,106.67,103.82z M128.24,82.24l-2.17,2.17c-3.59,3.59-9.43,3.59-13.02,0L79.89,51.24
		c-1.74-1.74-2.7-4.05-2.7-6.51s0.96-4.77,2.7-6.51h0l2.17-2.17c1.79-1.79,4.15-2.69,6.51-2.69s4.72,0.9,6.51,2.69l33.17,33.17
		C131.83,72.81,131.83,78.66,128.24,82.24z"/>
	<path class="st0" d="M260.87,187.12l-18.41-18.41c-1.76-1.76-4.61-1.76-6.36,0c-1.76,1.76-1.76,4.61,0,6.36l18.41,18.41
		c0.88,0.88,2.03,1.32,3.18,1.32s2.3-0.44,3.18-1.32C262.62,191.73,262.62,188.88,260.87,187.12z"/>
	<path class="st0" d="M231.69,159.65c-0.12-0.27-0.26-0.53-0.42-0.77c-0.16-0.25-0.35-0.48-0.56-0.69
		c-1.04-1.04-2.59-1.52-4.06-1.23c-0.29,0.06-0.57,0.15-0.84,0.26c-0.27,0.11-0.53,0.25-0.78,0.41c-0.24,0.17-0.48,0.35-0.68,0.56
		c-0.21,0.21-0.4,0.44-0.56,0.69c-0.16,0.24-0.3,0.5-0.42,0.77c-0.11,0.27-0.19,0.56-0.25,0.84c-0.06,0.29-0.09,0.59-0.09,0.88
		c0,0.3,0.03,0.59,0.09,0.88c0.06,0.29,0.14,0.57,0.26,0.85c0.11,0.27,0.25,0.53,0.41,0.77c0.16,0.25,0.35,0.48,0.56,0.69
		c0.21,0.2,0.44,0.39,0.68,0.56c0.25,0.16,0.51,0.3,0.78,0.41c0.27,0.11,0.55,0.2,0.84,0.26c0.29,0.05,0.59,0.08,0.88,0.08
		s0.59-0.03,0.88-0.08c0.29-0.06,0.57-0.15,0.84-0.26c0.27-0.11,0.53-0.25,0.78-0.41c0.24-0.17,0.47-0.36,0.68-0.56
		c0.21-0.21,0.4-0.44,0.56-0.69c0.16-0.24,0.3-0.5,0.42-0.77c0.11-0.28,0.19-0.56,0.25-0.85c0.06-0.29,0.09-0.58,0.09-0.88
		c0-0.29-0.03-0.59-0.09-0.88C231.88,160.21,231.81,159.92,231.69,159.65z"/>
</g>
</svg>
