<?xml version="1.0" encoding="utf-8"?>
<!-- Generator: Adobe Illustrator 23.0.6, SVG Export Plug-In . SVG Version: 6.00 Build 0)  -->
<svg version="1.1" id="Capa_1" xmlns="http://www.w3.org/2000/svg" xmlns:xlink="http://www.w3.org/1999/xlink" x="0px" y="0px"
	 viewBox="0 0 226.77 59.53" style="enable-background:new 0 0 226.77 59.53;" xml:space="preserve">
<style type="text/css">
	.st0{fill:#FFFFFF;}
</style>
<g>
	<g>
		<path class="st0" d="M33.73,8.15c2.04,0,3.7-1.67,3.7-3.72c0-0.28-0.04-0.55-0.1-0.82c0.09-0.02,0.18-0.03,0.27-0.08
			c0.09,0.15,0.2,0.35,0.28,0.5c0.25,0.47,0.53,1,0.9,1.36c0.68,0.67,1.59,1.11,2.54,1.22c0.04,0,0.08,0.01,0.12,0.01
			c0.5,0,0.93-0.37,0.99-0.88c0.07-0.55-0.33-1.05-0.87-1.11c-0.52-0.06-1.01-0.3-1.39-0.67c-0.15-0.14-0.37-0.55-0.53-0.85
			c-0.29-0.54-0.56-1.05-0.98-1.34C38,1.3,37.16,1.48,36.65,1.78c-0.08,0.04-0.13,0.11-0.19,0.17c-0.68-0.75-1.65-1.23-2.73-1.23
			c-2.04,0-3.7,1.67-3.7,3.72C30.02,6.48,31.69,8.15,33.73,8.15z M33.73,2.71c0.94,0,1.7,0.77,1.7,1.72s-0.76,1.72-1.7,1.72
			s-1.7-0.77-1.7-1.72S32.79,2.71,33.73,2.71z"/>
		<path class="st0" d="M45.54,52.12l-4.34-7.2c-0.44-0.74-0.95-2.13-1.08-2.98l-1.59-10.1c0.54-1.01,0.88-2.38,0.83-3.43l-0.45-9.3
			l-0.29-4.83c-0.15-2.53-2.31-4.6-4.86-4.6c-2.48,0-4.72,2.03-5,4.53l-0.5,4.52l-3.65,37.17c-0.08,0.81,0.16,1.59,0.67,2.14
			c0.44,0.49,1.05,0.76,1.69,0.76c1.29,0,2.6-1.09,2.98-2.49L33.56,43l0.89,2.29c0.39,1.02,1.21,2.5,1.85,3.38l4.74,6.47
			c0.58,0.79,1.48,1.21,2.36,1.21c0.5,0,0.99-0.14,1.42-0.42C46.01,55.13,46.33,53.42,45.54,52.12z M28.02,55.81
			c-0.15,0.56-0.7,1.01-1.05,1.01c-0.05,0-0.13-0.01-0.21-0.1c-0.12-0.13-0.18-0.36-0.16-0.6l3.65-37.16l0.5-4.5
			c0.17-1.49,1.55-2.75,3.06-2.75c1.44,0,2.73,1.24,2.82,2.72l0.29,4.82l0.45,9.29c0.04,0.77-0.33,2.04-0.77,2.68l-1.98,2.84
			c-0.63,0.91-1.36,2.47-1.65,3.54L28.02,55.81z M43.71,54.26c-0.3,0.2-0.79,0.05-1.06-0.31l-4.74-6.46
			c-0.54-0.73-1.27-2.07-1.6-2.92l-1.87-4.82l0.45-1.65c0.23-0.86,0.86-2.2,1.36-2.92l0.63-0.9l1.25,7.98
			c0.17,1.11,0.77,2.74,1.35,3.7l4.34,7.2C44.07,53.54,44.01,54.06,43.71,54.26z"/>
		<path class="st0" d="M34.96,20.88l-0.05-5.66c0-0.55-0.45-0.99-1-0.99c0,0-0.01,0-0.01,0c-0.55,0-1,0.46-0.99,1.01l0.05,5.67
			c0.01,0.91-0.17,2.44-0.38,3.33l-2.56,10.55c-0.13,0.54,0.2,1.08,0.74,1.21c0.08,0.02,0.16,0.03,0.24,0.03
			c0.45,0,0.86-0.31,0.97-0.76l2.56-10.55C34.77,23.64,34.97,21.96,34.96,20.88z"/>
		<path class="st0" d="M10.42,8.15c2.04,0,3.7-1.67,3.7-3.72c0-2.05-1.66-3.72-3.7-3.72s-3.7,1.67-3.7,3.72
			C6.71,6.48,8.38,8.15,10.42,8.15z M10.42,2.71c0.94,0,1.7,0.77,1.7,1.72s-0.76,1.72-1.7,1.72s-1.7-0.77-1.7-1.72
			S9.48,2.71,10.42,2.71z"/>
		<path class="st0" d="M17.89,44.92c-0.44-0.74-0.95-2.13-1.08-2.98l-1.59-10.1c0.54-1.01,0.89-2.39,0.83-3.43l-0.45-9.3l-0.29-4.83
			c-0.15-2.53-2.31-4.6-4.86-4.6c-2.48,0-4.72,2.03-5,4.53l-0.5,4.52L1.3,55.91c-0.08,0.81,0.16,1.59,0.67,2.14
			c0.44,0.49,1.05,0.76,1.69,0.76c1.29,0,2.6-1.09,2.98-2.49L10.25,43l0.89,2.29c0.39,1.02,1.21,2.5,1.85,3.38l4.74,6.47
			c0.58,0.79,1.48,1.21,2.36,1.21c0.5,0,0.99-0.14,1.42-0.42c1.18-0.79,1.5-2.5,0.71-3.8L17.89,44.92z M4.71,55.81
			c-0.15,0.56-0.7,1.01-1.05,1.01c-0.05,0-0.13-0.01-0.21-0.1c-0.12-0.13-0.18-0.36-0.16-0.6l3.65-37.16l0.5-4.5
			c0.17-1.49,1.55-2.75,3.06-2.75c1.44,0,2.73,1.24,2.82,2.72l0.29,4.82l0.45,9.29c0.04,0.77-0.33,2.04-0.77,2.67l-1.98,2.84
			c-0.63,0.91-1.36,2.47-1.65,3.54L4.71,55.81z M20.4,54.26c-0.3,0.2-0.79,0.05-1.06-0.31l-4.74-6.46c-0.54-0.73-1.27-2.07-1.6-2.92
			l-1.87-4.82l0.45-1.65c0.23-0.86,0.86-2.2,1.36-2.92l0.63-0.9l1.25,7.98c0.17,1.11,0.77,2.74,1.35,3.7l4.34,7.2
			C20.76,53.54,20.7,54.06,20.4,54.26z"/>
		<path class="st0" d="M11.65,20.88l-0.05-5.66c0-0.55-0.45-0.99-1-0.99c0,0-0.01,0-0.01,0c-0.55,0-1,0.46-0.99,1.01l0.05,5.67
			c0.01,0.91-0.17,2.43-0.38,3.33L6.7,34.77c-0.13,0.54,0.2,1.08,0.74,1.21c0.08,0.02,0.16,0.03,0.24,0.03
			c0.45,0,0.86-0.31,0.97-0.76l2.56-10.55C11.46,23.63,11.66,21.96,11.65,20.88z"/>
	</g>
	<g>
		<path class="st0" d="M101.04,13.48h-6c0-1.1-0.9-2-2-2h-2c-1.1,0-2,0.9-2,2h-6.5v-2.8c0-1.22-0.98-2.2-2.2-2.2h-6.6
			c-1.22,0-2.2,0.98-2.2,2.2v2.8h-6.5c0-1.1-0.9-2-2-2h-2c-1.1,0-2,0.9-2,2h-6c-2.21,0-4,1.79-4,4v28c0,2.21,1.79,4,4,4h6
			c0,1.1,0.9,2,2,2h2c1.1,0,2-0.9,2-2h24c0,1.1,0.9,2,2,2h2c1.1,0,2-0.9,2-2h6c2.21,0,4-1.79,4-4v-28
			C105.04,15.28,103.25,13.48,101.04,13.48z M91.04,12.48L91.04,12.48L91.04,12.48L91.04,12.48z M74.54,12.48c0-0.55,0.45-1,1-1h3
			c0.55,0,1,0.45,1,1v1h-5V12.48z M61.04,12.48L61.04,12.48L61.04,12.48L61.04,12.48z M53.04,47.48c-1.1,0-2-0.9-2-2v-28
			c0-1.1,0.9-2,2-2h6v32H53.04z M65.04,47.48v-32h24v32H65.04z M103.04,45.48c0,1.1-0.9,2-2,2h-6v-32h6c1.1,0,2,0.9,2,2V45.48z"/>
		<path class="st0" d="M84.91,29.65l-3.03-1.75c-0.48-0.28-1.09-0.11-1.37,0.37l-2,3.46c-0.28,0.48-0.11,1.09,0.37,1.37l1.73,1
			c0.16,0.09,0.33,0.13,0.5,0.13c0.35,0,0.68-0.18,0.87-0.5c0.28-0.48,0.11-1.09-0.37-1.37l-0.87-0.5l1-1.73l2.17,1.25
			c0.48,0.28,1.09,0.11,1.37-0.37C85.55,30.54,85.38,29.93,84.91,29.65z"/>
		<path class="st0" d="M71.52,25.77c0.52,0,1.06-0.14,1.54-0.42c0.47-0.28,0.63-0.9,0.34-1.37c-0.28-0.47-0.9-0.63-1.37-0.34
			c-0.47,0.28-1.09,0.13-1.37-0.34c-0.14-0.23-0.18-0.5-0.11-0.76c0.06-0.26,0.23-0.48,0.49-0.63l-0.49-0.87l-0.57-0.83
			c-0.69,0.41-1.17,1.07-1.37,1.84c-0.2,0.78-0.08,1.58,0.34,2.27C69.5,25.25,70.5,25.77,71.52,25.77z"/>
		<path class="st0" d="M100.32,32.85c-0.77-0.21-1.58-0.1-2.28,0.3c-0.48,0.28-0.64,0.89-0.37,1.37c0.28,0.48,0.89,0.64,1.37,0.37
			c0.23-0.13,0.5-0.17,0.76-0.1c0.26,0.07,0.47,0.23,0.61,0.47c0.13,0.23,0.17,0.5,0.1,0.76c-0.07,0.26-0.23,0.47-0.47,0.61l1,1.73
			c0.69-0.4,1.19-1.05,1.4-1.82c0.21-0.77,0.1-1.58-0.3-2.28C101.74,33.55,101.09,33.06,100.32,32.85z"/>
		<path class="st0" d="M74.91,42.12l-2.17,1.25l-1-1.73l0.87-0.5c0.48-0.28,0.64-0.89,0.37-1.37c-0.28-0.48-0.89-0.64-1.37-0.37
			l-1.73,1c-0.48,0.28-0.64,0.89-0.37,1.37l2,3.46c0.19,0.32,0.52,0.5,0.87,0.5c0.17,0,0.34-0.04,0.5-0.13l3.03-1.75
			c0.48-0.28,0.64-0.89,0.37-1.37C76,42,75.38,41.84,74.91,42.12z"/>
		<path class="st0" d="M57.04,28.98h-4c-0.55,0-1,0.45-1,1v2c0,0.55,0.45,1,1,1s1-0.45,1-1v-1h2v2.5c0,0.55,0.45,1,1,1s1-0.45,1-1
			v-3.5C58.04,29.43,57.59,28.98,57.04,28.98z"/>
	</g>
	<g>
		<path class="st0" d="M130.31,27.64l16.76,5.98c0.09,0.03,0.18,0.05,0.26,0.05c0.32,0,0.62-0.2,0.73-0.52
			c0.14-0.41-0.07-0.85-0.47-1l-15.35-5.48l0.65-0.46l24.32,2.03c0.43,0.04,0.81-0.28,0.84-0.71c0.04-0.43-0.28-0.81-0.71-0.84
			l-24.6-2.05c-0.19-0.02-0.37,0.04-0.52,0.14l-2.09,1.49c-0.24,0.17-0.36,0.45-0.32,0.74S130.04,27.54,130.31,27.64z"/>
		<path class="st0" d="M177.91,20.49c-0.25-0.59-0.91-2.15-9.17-2.4c-1.55-0.05-3.06,0.22-4.49,0.79l-11.15,4.49
			c-0.4,0.16-0.59,0.62-0.43,1.01s0.61,0.59,1.01,0.43l11.15-4.49c1.23-0.5,2.53-0.72,3.86-0.68c5.74,0.17,7.6,1.03,7.78,1.45
			c0.02,0.04-0.03,0.2-0.27,0.47c-2.62,2.88-20.84,10.39-31.7,14.45c-7.14,2.66-15.28,3.72-20.08,3.81
			c-0.49,0.01-0.81-0.01-1.02-0.04c0.4-0.38,1.21-0.95,2.01-1.39c0.06-0.04,6.25-3.54,8.95-4.72l2.78-1.21
			c0.4-0.17,0.58-0.63,0.4-1.03c-0.17-0.4-0.63-0.58-1.03-0.4l-2.53,1.1l-14.97-4.27c-0.15-0.04-0.32-0.04-0.47,0.01l-3.07,1.07
			c-0.26,0.09-0.46,0.32-0.51,0.59s0.04,0.55,0.26,0.74l8.46,7.32c-1.56,0.99-2.26,1.9-2.05,2.69c0.25,0.94,1.44,1.1,2.54,1.1
			c0.09,0,0.17,0,0.26,0c4.93-0.1,13.27-1.18,20.59-3.91c0.28-0.11,28.49-10.67,32.31-14.86C178.17,21.71,178.11,20.96,177.91,20.49
			z M118.84,29.43l13.01,3.71c-2.45,1.23-5.57,2.97-6.73,3.62l-7.84-6.79L118.84,29.43z"/>
		<path class="st0" d="M116.45,34.84c-0.19-0.39-0.65-0.55-1.04-0.37l-7.66,3.67c-0.39,0.19-0.55,0.65-0.37,1.04
			c0.13,0.28,0.41,0.44,0.7,0.44c0.11,0,0.23-0.02,0.34-0.08l7.66-3.67C116.47,35.69,116.64,35.23,116.45,34.84z"/>
		<path class="st0" d="M118.37,37.02l-2.98,1.55c-0.38,0.2-0.53,0.67-0.33,1.05c0.14,0.27,0.41,0.42,0.69,0.42
			c0.12,0,0.24-0.03,0.36-0.09l2.98-1.55c0.38-0.2,0.53-0.67,0.33-1.05S118.75,36.82,118.37,37.02z"/>
	</g>
	<g>
		<path class="st0" d="M215.35,39.68c-1.64,0.22-2.8,1.18-3.93,2.11c-1.22,1.01-2.28,1.88-3.92,1.88c-0.01,0-0.01,0-0.02,0
			c-0.36,0-1.1-0.01-1.94-0.37c-0.81-0.35-1.39-0.92-2-1.53c-1.15-1.13-2.45-2.42-5.18-2.09c-2.23,0.26-3.81,1.45-5.21,2.5
			c-1.44,1.08-2.38,1.73-3.48,1.52c-0.99-0.19-1.6-0.86-2.32-1.64c-0.88-0.97-1.89-2.07-3.71-2.36c-2.45-0.4-5.11,1.07-7.92,4.34
			c-0.36,0.42-0.31,1.05,0.11,1.41c0.42,0.36,1.05,0.31,1.41-0.11c2.32-2.71,4.37-3.94,6.08-3.66c1.14,0.18,1.79,0.9,2.55,1.73
			c0.83,0.91,1.78,1.95,3.42,2.26c0.27,0.05,0.54,0.08,0.8,0.08c1.65,0,2.97-0.99,4.26-1.96c1.26-0.94,2.55-1.91,4.25-2.11
			c1.78-0.21,2.52,0.52,3.54,1.53c0.68,0.67,1.46,1.44,2.61,1.94c1.21,0.53,2.27,0.53,2.73,0.54c2.33,0,3.88-1.24,5.22-2.34
			c0.99-0.82,1.84-1.52,2.92-1.67c1.48-0.2,3.21,0.71,5.15,2.71c0.38,0.39,1.02,0.41,1.41,0.02c0.4-0.39,0.4-1.02,0.02-1.41
			C219.79,40.49,217.49,39.39,215.35,39.68z"/>
		<path class="st0" d="M215.35,45.49c-1.64,0.22-2.8,1.18-3.93,2.11c-1.22,1.01-2.28,1.88-3.91,1.88c-0.01,0-0.01,0-0.02,0
			c-0.33,0-1.1-0.01-1.94-0.37c-0.81-0.35-1.39-0.92-2-1.53c-1.15-1.13-2.44-2.41-5.18-2.09c-2.23,0.26-3.81,1.45-5.21,2.5
			c-1.44,1.08-2.37,1.73-3.48,1.51c-0.99-0.19-1.6-0.86-2.32-1.64c-0.88-0.97-1.89-2.07-3.71-2.36c-0.55-0.09-1.06,0.28-1.15,0.83
			c-0.09,0.54,0.28,1.06,0.83,1.15c1.14,0.18,1.79,0.9,2.55,1.73c0.83,0.91,1.78,1.95,3.42,2.26c0.27,0.05,0.54,0.08,0.8,0.08
			c1.65,0,2.97-0.99,4.26-1.96c1.25-0.94,2.55-1.91,4.25-2.11c1.78-0.21,2.52,0.52,3.54,1.53c0.68,0.67,1.46,1.44,2.61,1.94
			c1.22,0.53,2.31,0.54,2.73,0.54c0.01,0,0.02,0,0.03,0c2.35,0,3.86-1.24,5.19-2.34c0.99-0.82,1.84-1.52,2.92-1.67
			c0.55-0.07,0.93-0.58,0.86-1.12C216.4,45.8,215.91,45.41,215.35,45.49z"/>
		<path class="st0" d="M224.48,37.67c-1.75,0-4.61-0.8-8.23-1.82c-2.69-0.76-6.04-1.7-9.86-2.57c-0.54-0.13-1.07,0.21-1.2,0.75
			c-0.12,0.54,0.21,1.07,0.75,1.2c3.77,0.86,6.95,1.76,9.76,2.55c3.92,1.1,6.75,1.9,8.77,1.9c0.55,0,1-0.45,1-1
			S225.04,37.67,224.48,37.67z"/>
		<path class="st0" d="M197.15,33.45c0.32,0.05,0.65,0.11,0.97,0.17c0.55,0.11,1.06-0.26,1.16-0.8c0.1-0.54-0.26-1.06-0.81-1.16
			c-0.33-0.06-0.67-0.12-1-0.17c-9.54-1.59-15.53,2.27-19.5,4.83c-1.48,0.95-2.76,1.78-3.59,1.86c-0.55,0.05-0.95,0.54-0.9,1.09
			c0.05,0.52,0.49,0.9,0.99,0.9c0.03,0,0.07,0,0.1,0c1.31-0.13,2.71-1.03,4.47-2.17C182.77,35.6,188.37,31.99,197.15,33.45z"/>
		<path class="st0" d="M191.92,20.3l7.38,1.3c0,0,0,0,0,0l3.94,0.69l-2.43,13.79c-0.01,0.06-0.02,0.12-0.02,0.18
			c0,0.48,0.34,0.9,0.83,0.98c0.06,0.01,0.12,0.02,0.17,0.02c0.48,0,0.9-0.34,0.98-0.83l2.43-13.79l11.32,2
			c0.06,0.01,0.12,0.02,0.17,0.02c0.48,0,0.9-0.34,0.98-0.83c0.61-3.43-0.21-6.89-2.31-9.76c-2.08-2.85-5.17-4.76-8.71-5.39
			c-0.01,0-0.01,0-0.02-0.01c-0.01,0-0.01,0-0.02,0c-3.54-0.62-7.1,0.12-10.03,2.08c-2.95,1.98-4.9,4.95-5.51,8.38
			C191.01,19.68,191.37,20.2,191.92,20.3z M213.77,15.25c1.57,2.14,2.29,4.68,2.08,7.24l-5.39-0.95c0.56-3.9,0.29-7.33-0.64-9.68
			C211.37,12.67,212.73,13.82,213.77,15.25z M197.73,12.42c1.47-0.98,3.13-1.6,4.86-1.84c-1.67,1.89-3.1,5.03-3.9,8.87l-5.39-0.95
			C193.98,16.04,195.52,13.9,197.73,12.42z"/>
	</g>
</g>
</svg>
