<?xml version="1.0" encoding="utf-8"?>
<!-- Generator: Adobe Illustrator 23.0.6, SVG Export Plug-In . SVG Version: 6.00 Build 0)  -->
<svg version="1.1" id="Capa_1" xmlns="http://www.w3.org/2000/svg" xmlns:xlink="http://www.w3.org/1999/xlink" x="0px" y="0px"
	 viewBox="0 0 140 87" style="enable-background:new 0 0 140 87;" xml:space="preserve">
<style type="text/css">
	.st0{enable-background:new    ;}
	.st1{fill:#FBB900;}
	.st2{fill:#FFFFFF;}
</style>
<g>
	<g class="st0">
		<path class="st1" d="M134.23,1.93c-23.07-0.01-46.14-0.01-69.21,0c-3.46,0-4.1,0.64-4.1,4.06c-0.01,9.53-0.03,19.07,0.02,28.6
			c0.01,1.73-0.47,3.07-1.75,4.26c-1.81,1.69-3.51,3.48-5.26,5.24c-0.78,0.79-1.09,1.73-0.7,2.79c0.41,1.12,1.33,1.47,2.43,1.48
			c0.65,0.01,1.31,0.01,1.96,0.01c12.59,0,25.18,0,37.77,0c12.95,0,25.91,0,38.86,0c3.34,0,3.74-0.41,3.74-3.8
			C138,31.62,138,18.67,138,5.72C138,2.37,137.57,1.93,134.23,1.93z"/>
	</g>
	<g>
		<g>
			<path class="st2" d="M42.03,60.73c4.21-4.52,6.4-10.41,6.18-16.58c-0.22-6.17-2.83-11.88-7.35-16.09
				c-4.52-4.21-10.41-6.4-16.58-6.18l0,0c-6.17,0.22-11.88,2.83-16.09,7.35c-4.21,4.52-6.4,10.41-6.18,16.58
				c0.22,6.17,2.83,11.88,7.35,16.09c3.78,3.51,8.51,5.62,13.56,6.09c0.99,0.09,2,0.12,3.02,0.08
				C32.11,67.86,37.83,65.25,42.03,60.73z M25.87,66.16c-5.66,0.2-11.05-1.81-15.19-5.66c-4.14-3.86-6.54-9.09-6.74-14.75
				c-0.2-5.66,1.81-11.05,5.66-15.19c3.86-4.14,9.09-6.54,14.75-6.74c0,0,0,0,0,0c0.93-0.03,1.85-0.01,2.77,0.08
				c4.63,0.43,8.97,2.36,12.43,5.59c4.14,3.86,6.54,9.09,6.74,14.75c0.2,5.66-1.81,11.05-5.66,15.19S31.53,65.96,25.87,66.16z"/>
		</g>
		<g>
			<path class="st2" d="M34.38,52.29c-5.98,3.49-12.84,3.75-17.91,0.69c-0.46-0.27-1.05-0.13-1.32,0.33
				c-0.28,0.46-0.13,1.05,0.33,1.32c2.17,1.31,4.62,2.08,7.19,2.32c4.15,0.39,8.61-0.62,12.68-2.99c0.46-0.27,0.61-0.86,0.35-1.32
				C35.43,52.18,34.84,52.02,34.38,52.29z"/>
		</g>
		<g>
			<path class="st2" d="M42.09,38.87c-0.02-0.14-0.05-0.26-0.08-0.39l0.29-3.14c0.05-0.53-0.34-0.99-0.86-1.05l-3.43-0.35
				c-0.29-0.05-0.57-0.07-0.81-0.06c-4.34-0.22-7.06,0.02-8.74,0.82c-0.02,0.01-0.05,0.01-0.07,0.03c-0.07,0.04-0.14,0.07-0.21,0.11
				c-0.01,0-0.01,0.01-0.02,0.01c-3.63,2.04-6.98,0.24-7.13,0.16c-0.09-0.05-0.18-0.07-0.27-0.09c-1.74-0.63-4.43-0.66-8.61-0.15
				c-0.21,0.01-0.44,0.04-0.68,0.09L7.9,35.5c-0.52,0.09-0.87,0.58-0.78,1.11l0.52,3.14c-0.01,0.12-0.03,0.24-0.04,0.37c0,0,0,0,0,0
				c-0.01,0.18-0.3,4.38,2.25,6.82c0.98,0.94,2.23,1.49,3.72,1.63c0.62,0.06,1.28,0.05,1.98-0.04c2.34-0.28,7.62-0.9,8.1-7.75
				c0.26-0.39,0.77-0.98,1.25-1c0.36-0.02,0.8,0.33,1.25,0.96c0.85,5.74,4.8,6.78,7.41,7.02c0.45,0.04,0.87,0.06,1.22,0.08
				c2.41,0.11,4.28-0.56,5.57-1.99C42.71,43.23,42.12,39.05,42.09,38.87C42.09,38.88,42.09,38.88,42.09,38.87z M15.32,46.62
				c-1.79,0.21-3.18-0.15-4.14-1.06c-1.88-1.79-1.67-5.21-1.67-5.3c0.21-2.71,1.68-3.35,2.37-3.51l0.02,0c0,0,0.01,0,0.01,0
				c0.16-0.03,0.27-0.04,0.31-0.04c0.04,0,0.07,0,0.11-0.01c5.07-0.62,7.85-0.4,8.77,0.69c0.61,0.73,0.63,1.36,0.65,1.91
				c0.01,0.38,0,0.74-0.01,1.08c-0.01,0.04,0,0.07,0,0.11C21.41,45.9,17.64,46.35,15.32,46.62z M38.91,44.56
				c-0.89,0.98-2.25,1.44-4.05,1.35c-2.49-0.11-6.66-0.3-6.94-6.84c-0.02-0.55-0.05-1.18,0.51-1.95c0.83-1.15,3.6-1.57,8.69-1.32
				c0.03,0,0.06,0,0.09,0c0.05,0,0.16,0,0.31,0.01c0.01,0,0.02,0.01,0.03,0.01l0.09,0.01c0.74,0.12,2.16,0.71,2.55,3.32
				C40.2,39.25,40.65,42.64,38.91,44.56z"/>
		</g>
		<g>
			<path class="st2" d="M48.26,81.81l-4.35-1.02c-2.04-0.48-3.61-1.41-4.66-2.69c-0.88-1.13-1.42-2.53-1.53-4.09
				c-0.05-0.89,0.03-1.84,0.25-2.85c0.06-0.23,0.13-0.47,0.2-0.69c0.03-0.08,0.05-0.16,0.08-0.24c0.08-0.23,0.17-0.46,0.27-0.68
				c0.04-0.09,0.07-0.17,0.11-0.26c0.1-0.21,0.2-0.41,0.31-0.62c0.06-0.11,0.12-0.22,0.19-0.32c0.1-0.17,0.2-0.34,0.31-0.5
				c0.12-0.18,0.25-0.35,0.38-0.52c0.66-0.87,1.45-1.65,2.36-2.29c0.01,0,0.01-0.01,0.01-0.01c0,0,0.01,0,0.01-0.01l10.74-8.53
				c0.67-0.53,1.34-0.43,1.69-0.1c0.11,0.1,0.28,0.31,0.12,0.54l-6.19,9.02c-0.11,0.15-0.13,0.35-0.06,0.52
				c0.07,0.17,0.22,0.3,0.4,0.35l2.42,0.57c0.03,0.01,0.05,0.01,0.08,0.01c0.28,0.03,0.54-0.16,0.6-0.43
				c0.07-0.3-0.12-0.61-0.42-0.68l-1.62-0.38l5.72-8.34c0.44-0.64,0.33-1.45-0.28-2.01c-0.69-0.64-1.97-0.9-3.17,0.05l-10.74,8.53
				c0,0,0,0,0,0c-0.91,0.64-1.71,1.4-2.4,2.26l0,0c-0.07,0.08-0.12,0.17-0.19,0.26c-0.14,0.19-0.28,0.38-0.41,0.57
				c-0.12,0.18-0.22,0.36-0.33,0.54c-0.08,0.13-0.15,0.26-0.22,0.39c-0.11,0.21-0.22,0.43-0.32,0.65c-0.05,0.11-0.1,0.22-0.15,0.34
				c-0.1,0.23-0.19,0.46-0.27,0.7c-0.04,0.11-0.07,0.22-0.11,0.33c-0.06,0.18-0.12,0.35-0.17,0.53c-0.01,0.06-0.02,0.12-0.04,0.19
				c-0.01,0.03-0.02,0.06-0.03,0.09c-0.2,0.86-0.28,1.7-0.27,2.52c0.01,2.4,0.84,4.44,2.39,5.95c1.07,1.1,2.44,1.91,4.07,2.29
				l0.61,0.14c0,0,0,0,0,0l0,0L48,82.92c0.03,0.01,0.05,0.01,0.08,0.01c0.28,0.03,0.54-0.16,0.6-0.43
				C48.75,82.19,48.56,81.88,48.26,81.81z"/>
		</g>
		<g>
			<path class="st2" d="M63.58,73.53c0.43-0.29,0.77-0.7,0.97-1.21c0.5-1.32-0.16-2.81-1.48-3.31c-0.21-0.08-0.44-0.13-0.59-0.14
				l-7.14-1.68c-1.41-0.42-2.92,0.38-3.36,1.78c-0.01,0.03-0.01,0.05-0.02,0.08c-0.09,0.6,0.03,1.18,0.29,1.68l-0.18-0.04
				c-1.41-0.42-2.92,0.38-3.36,1.78c-0.01,0.03-0.01,0.05-0.02,0.08c-0.17,1.08,0.33,2.12,1.19,2.69c-0.44,0.33-0.79,0.79-0.97,1.35
				c-0.01,0.03-0.01,0.05-0.02,0.08c-0.2,1.26,0.52,2.47,1.64,2.93c-0.38,0.32-0.68,0.74-0.84,1.25c-0.01,0.03-0.01,0.05-0.02,0.08
				c-0.23,1.45,0.76,2.84,2.18,3.09l3.79,0.89c0.22,0.08,0.45,0.14,0.67,0.16c1.12,0.1,2.22-0.54,2.64-1.64
				c0.23-0.61,0.2-1.24-0.01-1.81l0.32,0.08c0.22,0.08,0.45,0.14,0.67,0.16c1.12,0.1,2.22-0.54,2.64-1.64
				c0.25-0.67,0.21-1.37-0.07-1.98c0.25-0.03,0.49-0.09,0.73-0.2c0.63-0.28,1.1-0.79,1.35-1.43C65.03,75.45,64.58,74.17,63.58,73.53
				z M55.05,68.28l7.24,1.7c0.13,0.01,0.25,0.04,0.37,0.09c0.74,0.28,1.11,1.11,0.83,1.85c-0.28,0.74-1.11,1.11-1.92,0.81l-7.2-1.69
				c-0.83-0.14-1.4-0.93-1.3-1.76C53.35,68.48,54.22,68.03,55.05,68.28z M57.89,83.01c-0.28,0.74-1.11,1.11-1.92,0.81l-3.89-0.91
				c-0.83-0.14-1.4-0.93-1.3-1.76c0.27-0.79,1.14-1.24,1.98-0.99l1.95,0.46l2.35,0.55C57.8,81.45,58.17,82.28,57.89,83.01z
				 M61.52,79.79c-0.28,0.74-1.11,1.11-1.92,0.81l-2.21-0.52c-0.18-0.06-0.37-0.1-0.51-0.12l-1.6-0.38l-3.99-0.94
				c-0.83-0.14-1.4-0.93-1.29-1.76c0.27-0.79,1.14-1.24,1.98-0.99l6.55,1.54l1.88,0.44c0.09,0.02,0.19,0.03,0.28,0.07
				C61.43,78.22,61.8,79.05,61.52,79.79z M63.53,76.19c-0.14,0.36-0.4,0.64-0.75,0.8c-0.35,0.16-0.74,0.17-1.17,0.01l-0.6-0.14
				c-0.18-0.06-0.36-0.1-0.5-0.12l-5.32-1.25l-2.93-0.69c0,0,0,0,0,0l-1.17-0.27c-0.83-0.14-1.4-0.93-1.29-1.76
				c0.27-0.79,1.13-1.24,1.98-0.99l10.55,2.48c0.13,0.01,0.25,0.04,0.37,0.09C63.44,74.62,63.81,75.45,63.53,76.19z"/>
		</g>
	</g>
	<g>
		<path class="st2" d="M86.85,17.58h1.23l-0.76,5.41h-1.58L86.85,17.58z M88.57,15.89c0,0.25-0.08,0.45-0.24,0.62
			c-0.16,0.16-0.35,0.24-0.57,0.24c-0.23,0.01-0.42-0.07-0.57-0.22c-0.16-0.16-0.23-0.35-0.23-0.58c0-0.25,0.08-0.46,0.23-0.62
			c0.16-0.16,0.35-0.24,0.58-0.24c0.23-0.01,0.42,0.07,0.57,0.22C88.49,15.46,88.57,15.66,88.57,15.89z"/>
		<path class="st2" d="M93.48,17.62H91.1l-0.36,2.07h2.83L93.33,21h-4.36l1.35-7.82h4.36l-0.23,1.32h-2.81l-0.32,1.85h2.39
			L93.48,17.62z"/>
		<path class="st2" d="M97.86,18.91c0.04-0.27,0-0.49-0.12-0.66c-0.11-0.18-0.35-0.35-0.7-0.52c-0.36-0.17-0.65-0.35-0.89-0.53
			c-0.66-0.5-0.96-1.13-0.9-1.89c0.03-0.44,0.17-0.83,0.41-1.17c0.24-0.34,0.56-0.61,0.97-0.8s0.84-0.28,1.3-0.27
			c0.67,0.01,1.19,0.25,1.57,0.7c0.38,0.45,0.55,1.03,0.52,1.73l-1.54-0.01c0.04-0.73-0.2-1.11-0.7-1.12
			c-0.26-0.01-0.49,0.08-0.67,0.25c-0.19,0.18-0.3,0.41-0.34,0.69c-0.05,0.42,0.24,0.78,0.87,1.07s1.09,0.63,1.36,1
			c0.31,0.41,0.44,0.91,0.39,1.5c-0.05,0.68-0.32,1.22-0.81,1.63c-0.48,0.41-1.09,0.6-1.81,0.59c-0.73-0.01-1.3-0.26-1.72-0.74
			s-0.62-1.09-0.58-1.84l1.55,0.01c-0.03,0.46,0.03,0.79,0.18,0.99c0.15,0.2,0.38,0.3,0.7,0.3c0.28,0,0.5-0.09,0.66-0.26
			C97.72,19.4,97.82,19.18,97.86,18.91z"/>
		<path class="st2" d="M105.42,18.15h-0.78L104.14,21h-1.54l1.35-7.82l2.36,0.01c0.7,0.02,1.23,0.24,1.61,0.64s0.53,0.96,0.47,1.67
			c-0.09,1.07-0.58,1.82-1.46,2.23l0.78,3.18V21h-1.65L105.42,18.15z M104.86,16.83l0.81,0.01c0.37-0.01,0.67-0.15,0.88-0.44
			c0.21-0.29,0.32-0.67,0.32-1.15c-0.01-0.47-0.22-0.72-0.62-0.75l-0.98-0.01L104.86,16.83z"/>
		<path class="st2" d="M113.06,17.62h-2.38l-0.36,2.07h2.83L112.91,21h-4.36l1.35-7.82h4.36l-0.23,1.32h-2.81l-0.32,1.85h2.39
			L113.06,17.62z"/>
		<path class="st2" d="M82.01,31.45l-0.48,2.75h-1.54l1.35-7.82l2.51,0.01c0.68,0.02,1.22,0.27,1.61,0.73
			c0.39,0.47,0.55,1.07,0.49,1.81c-0.07,0.77-0.36,1.38-0.87,1.84c-0.51,0.46-1.16,0.69-1.94,0.69L82.01,31.45z M82.24,30.14
			l0.99,0.01c0.38-0.01,0.68-0.15,0.89-0.44c0.21-0.29,0.31-0.68,0.3-1.16c-0.01-0.25-0.07-0.44-0.18-0.59s-0.27-0.23-0.46-0.24
			l-1.12-0.01L82.24,30.14z"/>
		<path class="st2" d="M88.82,34.31c-0.69-0.01-1.23-0.24-1.64-0.68c-0.4-0.44-0.62-1.04-0.66-1.82c-0.01-0.27,0-0.54,0.03-0.82
			l0.2-1.3c0.1-0.69,0.31-1.31,0.61-1.85s0.67-0.94,1.12-1.2s0.95-0.39,1.51-0.38c0.69,0.01,1.24,0.25,1.64,0.71
			c0.4,0.46,0.61,1.09,0.64,1.89c0.01,0.3-0.01,0.59-0.05,0.85l-0.18,1.2c-0.16,1.07-0.52,1.91-1.09,2.51
			C90.39,34.04,89.68,34.33,88.82,34.31z M90.68,29.68c0.04-0.37,0.06-0.65,0.06-0.85c-0.02-0.8-0.31-1.21-0.86-1.23
			c-0.43-0.02-0.78,0.14-1.04,0.49c-0.26,0.34-0.45,0.88-0.55,1.61L88.1,31c-0.04,0.35-0.06,0.63-0.05,0.83
			c0.02,0.75,0.31,1.14,0.89,1.17c0.41,0.01,0.74-0.14,1-0.45s0.44-0.83,0.55-1.55L90.68,29.68z"/>
		<path class="st2" d="M95.43,31.35h-0.78l-0.49,2.86h-1.54l1.35-7.82l2.36,0.01c0.7,0.02,1.23,0.24,1.61,0.64s0.53,0.96,0.47,1.67
			c-0.09,1.07-0.58,1.82-1.46,2.23l0.78,3.18v0.09h-1.65L95.43,31.35z M94.87,30.03l0.81,0.01c0.37-0.01,0.67-0.15,0.88-0.44
			c0.21-0.29,0.32-0.67,0.32-1.15c-0.01-0.47-0.22-0.72-0.62-0.75l-0.98-0.01L94.87,30.03z"/>
		<path class="st2" d="M105,32.6h-2.08l-0.68,1.6h-1.68l3.73-7.82h1.41l1.03,7.82h-1.6L105,32.6z M103.48,31.29h1.41l-0.22-2.77
			L103.48,31.29z"/>
		<path class="st2" d="M112.84,34.2h-1.54l0.58-3.35h-2.25l-0.58,3.35h-1.54l1.35-7.82h1.54l-0.55,3.16h2.25l0.55-3.16h1.54
			L112.84,34.2z"/>
		<path class="st2" d="M115.71,34.2h-1.54l1.36-7.82h1.54L115.71,34.2z M116.89,24.27h1.75l-1.71,1.67h-1.32L116.89,24.27z"/>
		<path class="st2" d="M117.19,33.49c0-0.25,0.08-0.45,0.23-0.61c0.16-0.16,0.35-0.25,0.58-0.25c0.23,0,0.42,0.08,0.57,0.23
			s0.23,0.35,0.23,0.57c0,0.25-0.08,0.45-0.23,0.61s-0.34,0.25-0.58,0.25c-0.24,0-0.44-0.08-0.59-0.24S117.19,33.72,117.19,33.49z
			 M118.91,31.8h-1.23l0.77-5.41h1.57L118.91,31.8z"/>
	</g>
</g>
</svg>
