<?xml version="1.0" encoding="utf-8"?>
<!-- Generator: Adobe Illustrator 23.0.6, SVG Export Plug-In . SVG Version: 6.00 Build 0)  -->
<svg version="1.1" id="Capa_1" xmlns="http://www.w3.org/2000/svg" xmlns:xlink="http://www.w3.org/1999/xlink" x="0px" y="0px"
	 viewBox="0 0 50 50" style="enable-background:new 0 0 50 50;" xml:space="preserve">
<g>
	<path d="M25.06,2.51c6.16,0,12.32,0,18.48,0c2.53,0,3.95,1.43,3.95,3.96c0,2.86,0,5.72,0,8.58c0,2.22-1.41,3.8-3.43,3.87
		c-2.13,0.07-3.73-1.43-3.82-3.7c-0.06-1.46-0.06-2.92,0-4.38c0.04-0.87-0.29-1.09-1.11-1.08c-3.12,0.04-6.25,0.04-9.37,0
		c-0.78-0.01-1.08,0.21-1.08,1.04c0.02,9.46,0.02,18.92,0,28.38c0,0.82,0.28,1.07,1.07,1.04c1.4-0.05,2.8-0.05,4.2,0
		c1.9,0.08,3.26,1.23,3.64,2.97c0.32,1.49-0.42,3.08-1.81,3.85c-0.55,0.3-1.13,0.44-1.76,0.44C28,47.49,21.98,47.5,15.97,47.49
		c-1.92,0-3.38-1.36-3.6-3.27c-0.2-1.73,1-3.43,2.78-3.84c1.58-0.36,3.2-0.12,4.8-0.16c1.37-0.03,1.38-0.01,1.38-1.42
		c0-9.26,0-18.51,0-27.77c0-1.25,0-1.25-1.27-1.25c-3.07,0-6.13,0.03-9.2-0.02c-0.86-0.01-1.11,0.28-1.08,1.11
		c0.05,1.43,0.06,2.86,0,4.29c-0.11,2.72-2.47,4.41-4.88,3.55c-1.4-0.5-2.36-1.77-2.37-3.26C2.5,12.31,2.49,9.16,2.52,6
		c0.02-2.03,1.59-3.49,3.71-3.49C12.51,2.5,18.79,2.51,25.06,2.51z"/>
</g>
</svg>
