<?xml version="1.0" encoding="utf-8"?>
<!-- Generator: Adobe Illustrator 23.0.6, SVG Export Plug-In . SVG Version: 6.00 Build 0)  -->
<svg version="1.1" id="Capa_1" xmlns="http://www.w3.org/2000/svg" xmlns:xlink="http://www.w3.org/1999/xlink" x="0px" y="0px"
	 viewBox="0 0 50 50" style="enable-background:new 0 0 50 50;" xml:space="preserve">
<path d="M46.55,38.79h-5.99V11.21l5.99,0c0.45,0,0.88-0.31,0.94-0.76c0.08-0.55-0.34-1.01-0.87-1.01h-6.06V3.45
	c0-0.45-0.31-0.88-0.76-0.94c-0.55-0.08-1.01,0.34-1.01,0.87v6.06H11.21l0-5.99c0-0.45-0.31-0.88-0.76-0.94
	C9.91,2.43,9.44,2.85,9.44,3.38v6.06l-5.99,0C3,9.44,2.57,9.75,2.51,10.2c-0.08,0.55,0.34,1.01,0.87,1.01h6.06v27.58H3.45
	c-0.45,0-0.88,0.31-0.94,0.76c-0.08,0.55,0.34,1.01,0.87,1.01h6.06v5.99c0,0.45,0.31,0.88,0.76,0.94c0.55,0.08,1.01-0.34,1.01-0.87
	v-6.06h27.58v5.99c0,0.45,0.31,0.88,0.76,0.94c0.55,0.08,1.01-0.34,1.01-0.87v-6.06h6.06c0.53,0,0.95-0.47,0.87-1.01
	C47.43,39.1,47,38.79,46.55,38.79z"/>
</svg>
