<?xml version="1.0" encoding="utf-8"?>
<!-- Generator: Adobe Illustrator 23.0.6, SVG Export Plug-In . SVG Version: 6.00 Build 0)  -->
<svg version="1.1" id="Capa_1" xmlns="http://www.w3.org/2000/svg" xmlns:xlink="http://www.w3.org/1999/xlink" x="0px" y="0px"
	 viewBox="0 0 50 50" style="enable-background:new 0 0 50 50;" xml:space="preserve">
<path d="M5.88,47.55c-0.76,0.05-1.77-0.12-2.8-0.17c-0.5-0.03-0.78-0.2-0.43-0.69c1.84-2.56,1.94-5.52,2-8.48
	c0.11-4.77,4.04-8.28,8.16-8c0.71,0.05,1.13-0.29,1.56-0.77c6.88-7.7,14.3-14.85,22.18-21.51c2.1-1.78,4.25-3.5,6.7-4.81
	c0.57-0.31,1.16-0.56,1.81-0.66c1.39-0.2,2.41,0.68,2.43,2.08c0.02,1.32-0.6,2.43-1.2,3.53c-2.4,4.36-5.48,8.23-8.65,12.04
	c-4.98,5.97-10.47,11.46-16.3,16.59c-0.34,0.3-0.63,0.57-0.63,1.09c0.02,4.77-2.07,6.91-6.45,8.47C11.65,47.2,8.92,47.56,5.88,47.55
	z M25.35,28.91c-0.04-0.07-0.08-0.19-0.15-0.28c-0.81-1.08-1.75-2.04-2.83-2.85c-0.38-0.29-0.64-0.12-0.9,0.17
	c-1.47,1.59-2.94,3.17-4.41,4.75c-0.31,0.33-0.34,0.56,0.09,0.83c0.93,0.58,1.68,1.35,2.27,2.28c0.24,0.39,0.46,0.45,0.82,0.12
	c1.6-1.5,3.21-2.98,4.82-4.47C25.19,29.32,25.36,29.18,25.35,28.91z"/>
</svg>
